<svg width="60" height="60" viewBox="0 0 60 60" fill="none" xmlns="http://www.w3.org/2000/svg">
<path d="M6.3084 37.5862H10.3247C11.42 37.5862 12.4705 37.9495 13.245 38.5962C14.0195 39.2429 14.4546 40.1199 14.4546 41.0345V42.7586C14.4546 43.6732 14.8897 44.5502 15.6642 45.1969C16.4387 45.8436 17.4892 46.2069 18.5845 46.2069C19.6798 46.2069 20.7303 46.5702 21.5048 47.2169C22.2793 47.8636 22.7144 48.7406 22.7144 49.6552V54.7328M16.5196 25.4052V28.1035C16.5196 29.2466 17.0635 30.343 18.0316 31.1513C18.9997 31.9597 20.3128 32.4138 21.6819 32.4138H22.7144C23.8097 32.4138 24.8602 32.7771 25.6347 33.4238C26.4092 34.0704 26.8443 34.9475 26.8443 35.8621C26.8443 36.7766 27.2794 37.6537 28.0539 38.3004C28.8284 38.947 29.8789 39.3103 30.9742 39.3103C32.0695 39.3103 33.12 38.947 33.8945 38.3004C34.669 37.6537 35.1041 36.7766 35.1041 35.8621C35.1041 34.9475 35.5392 34.0704 36.3137 33.4238C37.0882 32.7771 38.1387 32.4138 39.234 32.4138H41.4311M30.9742 53.9448V49.6552C30.9742 48.7406 31.4093 47.8636 32.1838 47.2169C32.9583 46.5702 34.0088 46.2069 35.1041 46.2069H41.4311M43.3639 39.3103C43.3639 41.3481 42.8832 43.3659 41.9492 45.2485C41.0153 47.1312 39.6464 48.8418 37.9206 50.2827C36.1949 51.7236 34.1461 52.8666 31.8914 53.6464C29.6366 54.4262 27.2199 54.8276 24.7794 54.8276C22.3388 54.8276 19.9222 54.4262 17.6674 53.6464C15.4126 52.8666 13.3638 51.7236 11.6381 50.2827C9.91238 48.8418 8.54345 47.1312 7.60949 45.2485C6.67553 43.3659 6.19482 41.3481 6.19482 39.3103C6.19482 35.1949 8.15283 31.248 11.6381 28.338C15.1234 25.428 19.8504 23.7931 24.7794 23.7931C29.7083 23.7931 34.4353 25.428 37.9206 28.338C41.4059 31.248 43.3639 35.1949 43.3639 39.3103Z" stroke="white" stroke-width="2" stroke-linecap="round" stroke-linejoin="round"></path>
<g clip-path="url('#clip0_1084_1018')">
<path d="M46.6026 28.5706L47.9792 26.5797L41.2871 16.7175L45.0728 11.2426C45.6441 10.4164 45.3065 9.36443 44.317 8.88742C43.3275 8.4104 42.0675 8.69229 41.4962 9.51849L37.7105 14.9934L24.1352 15.0855L22.7586 17.0763L34.6131 19.4728L30.8273 24.9477L26.8144 25.004L25.7819 26.4972L31.239 27.8006L35.3195 31.0949L36.352 29.6017L34.4039 26.6718L38.1897 21.1969L46.6026 28.5706Z" fill="white"></path>
</g>
<defs>
<clipPath id="clip0_1084_1018">
<rect width="31.7638" height="29.0456" fill="white" transform="matrix(0.900797 0.434239 -0.568747 0.822512 31.3872 0)"></rect>
</clipPath>
</defs>
</svg>
