<svg width="60" height="60" viewBox="0 0 60 60" fill="none" xmlns="http://www.w3.org/2000/svg">
<path d="M2.22607 29.568V36.366C2.22607 36.7422 2.40247 37.0968 2.70307 37.3236C3.00367 37.5504 3.39307 37.623 3.75487 37.5198L24.6025 31.5786L24.9871 47.1288L17.8927 52.4454C17.5903 52.6722 17.4121 53.028 17.4121 53.406V57C17.4121 57.387 17.5987 57.75 17.9131 57.9756C18.2275 58.2012 18.6319 58.2612 18.9979 58.1364L30.0001 54.3918L41.0077 58.1358C41.1343 58.179 41.2645 58.2 41.3941 58.2C41.6413 58.2 41.8861 58.1238 42.0931 57.9756C42.4081 57.75 42.5941 57.387 42.5941 57V53.406C42.5941 53.028 42.4159 52.6722 42.1135 52.4454L35.0185 47.1288L35.3977 31.5786L56.2453 37.5198C56.6059 37.623 56.9959 37.5504 57.2971 37.3236C57.5977 37.0968 57.7741 36.7422 57.7741 36.366V29.568C57.7741 29.0874 57.4873 28.653 57.0451 28.4646L35.7013 19.3518L35.9821 7.782C35.9821 4.4832 33.2983 1.8 30.0001 1.8C26.7049 1.8 24.0241 4.4832 24.0247 7.8108L24.3049 19.3518L2.95507 28.464C2.51287 28.653 2.22607 29.0874 2.22607 29.568ZM4.62607 30.3606L25.9951 21.24C26.4469 21.0474 26.7355 20.5986 26.7235 20.1072L26.4235 7.782C26.4241 5.8068 28.0285 4.2 30.0001 4.2C31.9753 4.2 33.5821 5.8068 33.5827 7.7526L33.2827 20.1066C33.2701 20.5974 33.5593 21.0462 34.0111 21.2394L55.3741 30.3606V34.7766L34.5643 28.8462C34.2091 28.7448 33.8239 28.8138 33.5245 29.034C33.2257 29.2542 33.0451 29.5998 33.0367 29.9712L32.6047 47.6892C32.5945 48.0774 32.7739 48.4458 33.0847 48.6786L40.1947 54.0066V55.3254L30.3877 51.9888C30.1363 51.903 29.8639 51.903 29.6125 51.9888L19.8121 55.3248V54.006L26.9215 48.678C27.2323 48.4452 27.4111 48.0762 27.4015 47.688L26.9635 29.97C26.9539 29.5986 26.7739 29.253 26.4751 29.0328C26.1763 28.812 25.7923 28.7436 25.4353 28.845L4.62607 34.776V30.3606Z" fill="white"></path>
</svg>
