<svg width="60" height="60" viewBox="0 0 60 60" fill="none" xmlns="http://www.w3.org/2000/svg">
<g clip-path="url('#clip0_1084_972')">
<path d="M13.4473 41.7022H13.4794C13.5906 41.7021 13.6975 41.6387 13.7789 41.525C13.8602 41.4112 13.9099 41.2554 13.9181 41.0888L13.9237 40.9679C13.932 40.793 13.8938 40.6203 13.8174 40.4878C13.7411 40.3553 13.6328 40.2738 13.5165 40.2613C13.4001 40.2488 13.2853 40.3063 13.1971 40.4211C13.109 40.5359 13.0548 40.6986 13.0464 40.8735L13.0408 40.9945C13.0364 41.0811 13.0435 41.1682 13.0616 41.2507C13.0796 41.3332 13.1084 41.4096 13.1462 41.4754C13.1839 41.5411 13.23 41.595 13.2816 41.634C13.3333 41.6729 13.3896 41.6961 13.4473 41.7022Z" fill="white"></path>
<path d="M15.4601 9.27085C15.4685 9.09589 15.4305 8.92305 15.3543 8.79017C15.2781 8.65729 15.17 8.5752 15.0537 8.5619H15.0062C14.9472 8.55149 14.8874 8.55914 14.8305 8.58437C14.7735 8.6096 14.7205 8.65191 14.6747 8.70873C14.6289 8.76555 14.5912 8.83572 14.5639 8.91501C14.5366 8.9943 14.5203 9.08108 14.5159 9.17011C14.5115 9.25915 14.5191 9.3486 14.5383 9.43308C14.5575 9.51757 14.5879 9.59534 14.6276 9.66172C14.6673 9.7281 14.7155 9.78171 14.7694 9.81932C14.8233 9.85693 14.8816 9.87778 14.941 9.88059H14.9893H15.0223C15.1329 9.88047 15.2395 9.81762 15.3206 9.70459C15.4018 9.59156 15.4516 9.43667 15.4601 9.27085Z" fill="white"></path>
<path d="M10.3051 52.6679L10.2447 53.9104C10.2365 54.0853 10.2748 54.2581 10.3511 54.3907C10.4274 54.5233 10.5356 54.6051 10.652 54.6181H10.6842C10.7953 54.618 10.9022 54.5547 10.9836 54.4409C11.065 54.3271 11.1147 54.1713 11.1228 54.0048L11.1824 52.7623C11.1908 52.5874 11.1527 52.4147 11.0764 52.2821C11.0001 52.1494 10.8919 52.0678 10.7755 52.0552C10.6592 52.0425 10.5443 52.0998 10.4561 52.2145C10.3678 52.3292 10.3135 52.4918 10.3051 52.6667V52.6679Z" fill="white"></path>
<path d="M10.3961 15.4155C10.5073 15.4153 10.6142 15.352 10.6956 15.2382C10.7769 15.1245 10.8266 14.9687 10.8348 14.8021L10.8943 13.5657C10.9028 13.3908 10.8646 13.2181 10.7883 13.0855C10.712 12.9528 10.6038 12.8712 10.4875 12.8585C10.3712 12.8459 10.2562 12.9032 10.168 13.0179C10.0798 13.1326 10.0255 13.2952 10.0171 13.4701L9.95671 14.7126C9.9483 14.8876 9.98647 15.0605 10.0628 15.1932C10.1392 15.3259 10.2475 15.4076 10.364 15.4203L10.3961 15.4155Z" fill="white"></path>
<path d="M14.3445 13.9347L14.2849 15.1771C14.2806 15.2637 14.2877 15.3508 14.3059 15.4332C14.324 15.5157 14.3527 15.592 14.3905 15.6577C14.4282 15.7234 14.4742 15.7773 14.5259 15.8163C14.5775 15.8553 14.6337 15.8786 14.6913 15.8849H14.7235C14.8346 15.8847 14.9416 15.8214 15.023 15.7076C15.1043 15.5939 15.154 15.4381 15.1622 15.2715L15.2217 14.029C15.2259 13.9425 15.2187 13.8555 15.2005 13.7731C15.1823 13.6907 15.1535 13.6145 15.1157 13.5488C15.0779 13.4831 15.0319 13.4293 14.9803 13.3904C14.9287 13.3514 14.8725 13.3282 14.8149 13.3219C14.7573 13.3156 14.6994 13.3265 14.6446 13.3538C14.5898 13.3811 14.5391 13.4244 14.4954 13.4812C14.4517 13.538 14.4159 13.6072 14.39 13.6848C14.3641 13.7624 14.3486 13.8469 14.3445 13.9335V13.9347Z" fill="white"></path>
<path d="M0.459057 57.6765C0.399714 57.6727 0.340471 57.687 0.284894 57.7185C0.229318 57.75 0.178557 57.7981 0.135669 57.8599C0.0927803 57.9216 0.0586509 57.9958 0.0353353 58.0779C0.0120196 58.16 0 58.2484 0 58.3377C0 58.427 0.0120196 58.5153 0.0353353 58.5975C0.0586509 58.6796 0.0927803 58.7538 0.135669 58.8155C0.178557 58.8773 0.229318 58.9254 0.284894 58.9569C0.340471 58.9884 0.399714 59.0027 0.459057 58.9989H19.0126C19.126 58.9916 19.2332 58.9187 19.3117 58.7955C19.3902 58.6723 19.434 58.5083 19.434 58.3377C19.434 58.1671 19.3902 58.0031 19.3117 57.8799C19.2332 57.7567 19.126 57.6838 19.0126 57.6765H13.1205L13.407 51.7085C13.4155 51.5337 13.3773 51.3609 13.301 51.2283C13.2247 51.0957 13.1165 51.0141 13.0002 51.0014C12.8839 50.9887 12.7689 51.046 12.6807 51.1607C12.5925 51.2754 12.5382 51.4381 12.5298 51.613L12.2384 57.6765H8.77206L9.16723 49.4692L16.9402 50.3161L16.6883 55.5461C16.6841 55.6327 16.6914 55.7196 16.7096 55.802C16.7278 55.8844 16.7566 55.9606 16.7945 56.0262C16.8323 56.0919 16.8784 56.1456 16.93 56.1845C16.9817 56.2233 17.0379 56.2465 17.0955 56.2526H17.1277C17.2388 56.2524 17.3458 56.1891 17.4272 56.0753C17.5085 55.9616 17.5582 55.8058 17.5664 55.6392L17.8497 49.7487C17.8538 49.6621 17.8466 49.5751 17.8284 49.4927C17.8101 49.4103 17.7813 49.3341 17.7435 49.2685C17.7057 49.2029 17.6596 49.1491 17.6079 49.1102C17.5563 49.0714 17.5 49.0483 17.4424 49.0421L8.79138 48.1033C8.73375 48.0969 8.67584 48.1077 8.62098 48.135C8.56612 48.1623 8.5154 48.2057 8.47172 48.2625C8.42805 48.3194 8.39228 48.3887 8.36648 48.4665C8.34067 48.5442 8.32534 48.6288 8.32136 48.7155L7.88998 57.6765H4.42442L4.84131 48.9998L6.83566 49.2163C6.95199 49.229 7.06691 49.1717 7.15513 49.057C7.24335 48.9423 7.29765 48.7796 7.30608 48.6048C7.31451 48.4299 7.27639 48.2572 7.20009 48.1246C7.12379 47.9919 7.01557 47.9103 6.89924 47.8976L4.46627 47.6327L3.62925 47.542L3.68961 46.2898L18.3374 47.8819L18.2939 48.7893C18.2855 48.9643 18.3237 49.1372 18.4 49.2699C18.4764 49.4026 18.5847 49.4843 18.7012 49.497H18.7333C18.8445 49.4968 18.9514 49.4335 19.0328 49.3198C19.1141 49.206 19.1638 49.0502 19.172 48.8836L19.2468 47.3169C19.255 47.142 19.2168 46.9693 19.1404 46.8366C19.0641 46.704 18.9559 46.6222 18.8396 46.6092L18.0034 46.5185L18.4581 37.0711L19.2943 37.163H19.3265C19.4376 37.1628 19.5446 37.0995 19.6259 36.9858C19.7073 36.872 19.757 36.7162 19.7651 36.5496L19.8883 33.9776C19.8927 33.891 19.8856 33.804 19.8675 33.7215C19.8494 33.6391 19.8207 33.5628 19.7829 33.4971C19.7451 33.4315 19.6991 33.3777 19.6474 33.3389C19.5957 33.3001 19.5395 33.277 19.4818 33.2711L14.3197 32.7097L14.7736 23.2623L18.2215 23.6373L17.8907 30.5333C17.8822 30.707 17.9198 30.8787 17.9952 31.011C18.0705 31.1434 18.1776 31.2256 18.2931 31.2398H18.3253C18.4379 31.2424 18.5469 31.18 18.6298 31.0654C18.7128 30.9509 18.7634 30.7929 18.7712 30.624L19.1028 23.7341L19.939 23.8249H19.9712C20.0823 23.8244 20.1893 23.7608 20.2706 23.6469C20.352 23.5329 20.4017 23.377 20.4098 23.2103L20.5337 20.6394C20.5419 20.4645 20.5037 20.2918 20.4274 20.1591C20.351 20.0265 20.2428 19.9447 20.1265 19.9317L18.5458 19.7599C18.4305 19.7502 18.3172 19.809 18.2305 19.9236C18.1437 20.0383 18.0904 20.1996 18.0821 20.3728C18.0737 20.546 18.111 20.7172 18.1859 20.8495C18.2607 20.9817 18.3672 21.0645 18.4822 21.0798L19.6243 21.2008L19.5639 22.4529L7.58415 21.1572C7.46905 21.1483 7.35622 21.2076 7.26988 21.3223C7.18354 21.4371 7.13057 21.5981 7.12235 21.7709C7.11413 21.9437 7.15132 22.1145 7.22592 22.2465C7.30053 22.3786 7.4066 22.4614 7.52137 22.4771L9.57125 22.6997L9.11653 32.1471L5.66867 31.7721L6.15156 21.6653C6.15722 21.5391 6.13849 21.4131 6.09764 21.3024C6.09794 21.2988 6.09794 21.2951 6.09764 21.2915C6.09247 21.2789 6.08683 21.2668 6.08074 21.2552C6.04395 21.171 5.99476 21.1007 5.93697 21.0498C5.87919 20.9988 5.81437 20.9685 5.74754 20.9612L4.91133 20.8693L4.9733 19.6147L16.7293 20.8923H16.7591H16.7808C16.8003 20.8913 16.8196 20.8884 16.8388 20.8838H16.8509C16.9441 20.8545 17.0285 20.7803 17.0913 20.6725C17.154 20.5646 17.1917 20.429 17.1986 20.2862C17.1981 20.2789 17.1981 20.2716 17.1986 20.2644L17.601 11.8732C17.6051 11.7866 17.5979 11.6996 17.5797 11.6172C17.5616 11.5348 17.5327 11.4586 17.495 11.3929C17.4572 11.3273 17.4112 11.2734 17.3596 11.2345C17.3079 11.1956 17.2517 11.1723 17.1941 11.166C17.1365 11.1597 17.0787 11.1706 17.0238 11.1979C16.969 11.2253 16.9183 11.2686 16.8747 11.3253C16.7864 11.44 16.7321 11.6027 16.7237 11.7776L16.3567 19.5264L12.8042 19.1393L13.2541 9.69429L13.737 9.74631C13.8524 9.75604 13.9656 9.69724 14.0524 9.58257C14.1391 9.46791 14.1924 9.30658 14.2008 9.13338C14.2091 8.96017 14.1718 8.78898 14.097 8.65673C14.0221 8.52447 13.9157 8.44175 13.8006 8.42641L7.28475 7.71746L7.3427 6.4653L18.5297 7.68237L18.4694 8.93453L16.5507 8.72644C16.4343 8.71376 16.3194 8.77108 16.2312 8.88577C16.143 9.00046 16.0887 9.16313 16.0802 9.338C16.0718 9.51287 16.1099 9.68561 16.1862 9.81822C16.2625 9.95084 16.3708 10.0325 16.4871 10.0451L18.8517 10.2992H18.8838C18.9935 10.298 19.0989 10.2353 19.1794 10.1234C19.26 10.0116 19.3098 9.85852 19.3193 9.69429L19.4432 7.12223C19.4474 7.03563 19.4401 6.94865 19.4219 6.86625C19.4037 6.78386 19.3748 6.70767 19.337 6.64205C19.2992 6.57643 19.2531 6.52267 19.2015 6.48383C19.1498 6.44499 19.0936 6.42184 19.036 6.4157L6.96926 5.09701C6.91169 5.09058 6.85385 5.1013 6.79904 5.12855C6.74423 5.1558 6.69354 5.19905 6.64987 5.25581C6.60621 5.31257 6.57043 5.38172 6.54458 5.45932C6.51873 5.53691 6.50332 5.6214 6.49925 5.70796L6.37691 8.28244C6.36846 8.45617 6.40601 8.62789 6.48137 8.76021C6.55674 8.89254 6.66383 8.97475 6.77932 8.98897L7.9431 9.10995L7.60427 16.2273C7.6001 16.3139 7.60734 16.4008 7.62556 16.4832C7.64377 16.5656 7.67262 16.6418 7.71044 16.7074C7.74827 16.7731 7.79433 16.8268 7.84599 16.8657C7.89764 16.9045 7.95389 16.9277 8.01151 16.9338H8.0437C8.15473 16.9336 8.26159 16.8702 8.34281 16.7565C8.42404 16.6427 8.47359 16.4869 8.48152 16.3204L8.82357 9.21036L12.3769 9.59629L11.9221 19.0437L4.59826 18.2464C4.54065 18.2402 4.48278 18.251 4.42797 18.2784C4.37316 18.3058 4.32247 18.3492 4.27882 18.406C4.23517 18.4629 4.1994 18.5321 4.17356 18.6098C4.14772 18.6874 4.13232 18.772 4.12824 18.8586L4.00349 21.4294C3.99933 21.516 4.00656 21.603 4.02478 21.6854C4.043 21.7678 4.07185 21.844 4.10967 21.9096C4.14749 21.9752 4.19355 22.029 4.24521 22.0678C4.29687 22.1067 4.35312 22.1298 4.41073 22.136L5.24694 22.2267L4.79302 31.6765L3.95601 31.5918C3.8403 31.5788 3.72586 31.6351 3.63765 31.7484C3.54945 31.8617 3.49464 32.0229 3.48519 32.1967L3.36205 34.7688C3.35778 34.8554 3.36494 34.9425 3.38311 35.0249C3.40129 35.1074 3.43013 35.1836 3.46797 35.2493C3.50582 35.315 3.55192 35.3687 3.60363 35.4075C3.65534 35.4463 3.71164 35.4693 3.76929 35.4753L4.6055 35.5673L4.26506 42.6434C4.25664 42.8185 4.29482 42.9913 4.37119 43.1241C4.44756 43.2568 4.55587 43.3385 4.6723 43.3512H4.70449C4.81558 43.3513 4.92255 43.288 5.00381 43.1742C5.08507 43.0603 5.13457 42.9044 5.14232 42.7378L5.48276 35.6604L8.93061 36.0355L8.47669 45.4829L7.96805 45.4272L8.12338 42.1946C8.14622 41.7202 8.04275 41.2516 7.83575 40.8919C7.62874 40.5322 7.33515 40.3108 7.01956 40.2765C6.70397 40.2421 6.39224 40.3976 6.15293 40.7088C5.91363 41.02 5.76636 41.4613 5.74352 41.9357L5.58819 45.1695L3.31457 44.9276C3.19813 44.9149 3.08312 44.9723 2.99483 45.0871C2.90654 45.2019 2.85219 45.3647 2.84374 45.5397L2.72061 48.1057C2.71193 48.2797 2.74938 48.4517 2.82476 48.5843C2.90015 48.7169 3.00737 48.7993 3.12302 48.8135L3.96003 48.9042L3.53831 57.6765H0.459057ZM10.4501 22.7953L13.898 23.1691L13.4433 32.6165L12.9097 32.5585L13.065 29.3259C13.0763 29.091 13.0567 28.855 13.0074 28.6315C12.958 28.408 12.8799 28.2013 12.7774 28.0231C12.6749 27.845 12.55 27.699 12.41 27.5934C12.2699 27.4878 12.1174 27.4247 11.9612 27.4077C11.8049 27.3907 11.6479 27.4201 11.4993 27.4943C11.3506 27.5685 11.213 27.686 11.0945 27.8401C10.976 27.9942 10.8789 28.1818 10.8087 28.3923C10.7384 28.6028 10.6964 28.8321 10.6851 29.067L10.5298 32.2996L9.99539 32.2415L10.4501 22.7953ZM12.0316 32.4629L11.4071 32.3951L11.5624 29.1625C11.569 29.0382 11.6079 28.9227 11.6707 28.8412C11.7335 28.7597 11.8152 28.7187 11.898 28.727C11.939 28.7315 11.979 28.748 12.0158 28.7757C12.0525 28.8034 12.0853 28.8417 12.1122 28.8884C12.1391 28.9352 12.1596 28.9894 12.1726 29.0481C12.1855 29.1067 12.1907 29.1686 12.1877 29.2303L12.0316 32.4629ZM4.33106 32.9468L18.9788 34.5401L18.9185 35.7923L4.27069 34.2002L4.33106 32.9468ZM9.80867 36.1274L13.2565 36.5025L13.1559 38.5906C13.1518 38.6772 13.159 38.7642 13.1772 38.8466C13.1954 38.929 13.2243 39.0051 13.2621 39.0708C13.2999 39.1364 13.346 39.1901 13.3976 39.229C13.4493 39.2678 13.5056 39.291 13.5632 39.2971H13.5954C13.7065 39.2969 13.8135 39.2334 13.8947 39.1193C13.976 39.0053 14.0254 38.8492 14.0332 38.6825L14.1338 36.5956L17.5816 36.9706L17.1277 46.4168L13.6799 46.0418L13.8062 43.4153C13.8102 43.2436 13.7696 43.0762 13.693 42.9487C13.6163 42.8212 13.5097 42.7435 13.3956 42.732C13.2816 42.7205 13.169 42.7762 13.0818 42.8872C12.9945 42.9983 12.9394 43.156 12.9282 43.327L12.8018 45.9547L9.35475 45.5797L9.80867 36.1274ZM6.61836 42.0325C6.62434 41.908 6.66297 41.7922 6.72576 41.7105C6.78855 41.6288 6.87035 41.588 6.95317 41.597C7.03599 41.6059 7.11304 41.664 7.16737 41.7584C7.22171 41.8528 7.24888 41.9757 7.2429 42.1002L7.08757 45.3328L6.46625 45.2627L6.61836 42.0325Z" fill="white"></path>
<path d="M22.3347 58.9989C22.394 59.0027 22.4533 58.9884 22.5088 58.9569C22.5644 58.9254 22.6152 58.8773 22.6581 58.8155C22.701 58.7538 22.7351 58.6796 22.7584 58.5975C22.7817 58.5153 22.7937 58.427 22.7937 58.3377C22.7937 58.2484 22.7817 58.1601 22.7584 58.0779C22.7351 57.9958 22.701 57.9216 22.6581 57.8599C22.6152 57.7981 22.5644 57.75 22.5088 57.7185C22.4533 57.687 22.394 57.6727 22.3347 57.6765H21.3262C21.2669 57.6727 21.2077 57.687 21.1521 57.7185C21.0965 57.75 21.0457 57.7981 21.0029 57.8599C20.96 57.9216 20.9258 57.9958 20.9025 58.0779C20.8792 58.1601 20.8672 58.2484 20.8672 58.3377C20.8672 58.427 20.8792 58.5153 20.9025 58.5975C20.9258 58.6796 20.96 58.7538 21.0029 58.8155C21.0457 58.8773 21.0965 58.9254 21.1521 58.9569C21.2077 58.9884 21.2669 59.0027 21.3262 58.9989H22.3347Z" fill="white"></path>
</g>
<g clip-path="url('#clip1_1084_972')">
<path d="M41.497 42.0287H56.0298C56.0939 42.0289 56.1573 42.0101 56.2165 41.9734C56.2758 41.9366 56.3296 41.8827 56.3749 41.8147C56.4203 41.7467 56.4562 41.666 56.4808 41.5771C56.5053 41.4882 56.5179 41.3928 56.5179 41.2966V25.6892C56.5179 25.4947 56.4665 25.3081 56.375 25.1706C56.2834 25.033 56.1593 24.9557 56.0298 24.9557H52.263V23.2314C52.2576 23.0425 52.2038 22.864 52.113 22.7332C52.0221 22.6024 51.9011 22.5293 51.7753 22.5293C51.6494 22.5293 51.5284 22.6024 51.4375 22.7332C51.3467 22.864 51.2929 23.0425 51.2876 23.2314V24.9557H49.2511V23.2314C49.2457 23.0425 49.192 22.864 49.1011 22.7332C49.0102 22.6024 48.8892 22.5293 48.7634 22.5293C48.6375 22.5293 48.5166 22.6024 48.4257 22.7332C48.3348 22.864 48.2811 23.0425 48.2757 23.2314V24.9557H46.2401V23.2314C46.2401 23.0369 46.1887 22.8504 46.0971 22.7128C46.0056 22.5753 45.8814 22.498 45.752 22.498C45.6225 22.498 45.4983 22.5753 45.4068 22.7128C45.3153 22.8504 45.2638 23.0369 45.2638 23.2314V24.9557H41.497C41.3677 24.9561 41.2437 25.0335 41.1524 25.171C41.061 25.3086 41.0097 25.4949 41.0097 25.6892V30.602C41.0069 30.7009 41.0174 30.7996 41.0407 30.8922C41.0639 30.9848 41.0994 31.0694 41.145 31.1408C41.1905 31.2123 41.2452 31.2691 41.3058 31.308C41.3664 31.3468 41.4316 31.3668 41.4974 31.3668C41.5633 31.3668 41.6285 31.3468 41.689 31.308C41.7496 31.2691 41.8043 31.2123 41.8499 31.1408C41.8955 31.0694 41.9309 30.9848 41.9542 30.8922C41.9774 30.7996 41.9879 30.7009 41.9851 30.602V26.4213H42.9507V38.1818C42.9561 38.3707 43.0098 38.5492 43.1007 38.6801C43.1916 38.8109 43.3126 38.8839 43.4384 38.8839C43.5643 38.8839 43.6852 38.8109 43.7761 38.6801C43.867 38.5492 43.9207 38.3707 43.9261 38.1818V26.4213H53.6007V38.1818C53.6061 38.3707 53.6598 38.5492 53.7507 38.6801C53.8415 38.8109 53.9625 38.8839 54.0884 38.8839C54.2142 38.8839 54.3352 38.8109 54.4261 38.6801C54.517 38.5492 54.5707 38.3707 54.5761 38.1818V26.4213H55.5417V40.5632H41.9851V33.4929C41.9879 33.394 41.9774 33.2953 41.9542 33.2027C41.9309 33.1101 41.8955 33.0256 41.8499 32.9541C41.8043 32.8827 41.7496 32.8258 41.689 32.787C41.6285 32.7481 41.5633 32.7281 41.4974 32.7281C41.4316 32.7281 41.3664 32.7481 41.3058 32.787C41.2452 32.8258 41.1905 32.8827 41.145 32.9541C41.0994 33.0256 41.0639 33.1101 41.0407 33.2027C41.0174 33.2953 41.0069 33.394 41.0097 33.4929V41.2979C41.01 41.4919 41.0614 41.6777 41.1528 41.8147C41.2441 41.9517 41.3679 42.0287 41.497 42.0287Z" fill="white"></path>
<path d="M45.7259 30.59C45.6084 30.5089 45.4743 30.5012 45.353 30.5685C45.2317 30.6359 45.1331 30.7729 45.0789 30.9493C44.8337 31.7479 44.7076 32.6174 44.7095 33.4969C44.7095 34.7017 44.9473 35.8794 45.3927 36.8811C45.8382 37.8829 46.4714 38.6636 47.2122 39.1247C47.953 39.5857 48.7682 39.7064 49.5546 39.4713C50.3411 39.2363 51.0635 38.6561 51.6304 37.8042C52.1974 36.9523 52.5836 35.8669 52.74 34.6853C52.8964 33.5037 52.8161 32.2789 52.5093 31.1658C52.2024 30.0528 51.6828 29.1014 51.0161 28.4321C50.3494 27.7627 49.5655 27.4055 48.7637 27.4055C48.1641 27.4021 47.5716 27.6005 47.0297 27.9861C46.9129 28.0693 46.8229 28.2188 46.7795 28.4017C46.7361 28.5847 46.7428 28.786 46.7982 28.9615C46.8536 29.137 46.9531 29.2723 47.0748 29.3375C47.1966 29.4028 47.3306 29.3927 47.4474 29.3095C47.8587 29.0161 48.3084 28.865 48.7637 28.867C49.4287 28.8676 50.0756 29.1919 50.6077 29.7913C51.1397 30.3907 51.5282 31.2329 51.7149 32.1918C51.9017 33.1507 51.8767 34.1747 51.6436 35.1105C51.4106 36.0463 50.982 36.8434 50.4222 37.3825C49.8623 37.9217 49.2013 38.1738 48.5381 38.1012C47.8748 38.0286 47.2451 37.6351 46.7432 36.9796C46.2413 36.3242 45.8943 35.4421 45.754 34.4655C45.6137 33.4888 45.6878 32.4702 45.9651 31.5621C46.0191 31.3855 46.0242 31.1839 45.9794 31.0017C45.9345 30.8194 45.8434 30.6713 45.7259 30.59Z" fill="white"></path>
<path d="M42.7133 23.7061C42.8426 23.7061 42.9667 23.629 43.0582 23.4917C43.1497 23.3545 43.2012 23.1683 43.2015 22.974V21.3569H54.3253V22.974C54.3253 23.1685 54.3767 23.3551 54.4683 23.4926C54.5598 23.6301 54.684 23.7074 54.8135 23.7074C54.9429 23.7074 55.0671 23.6301 55.1586 23.4926C55.2502 23.3551 55.3016 23.1685 55.3016 22.974V20.6235C55.3014 20.4292 55.2498 20.243 55.1583 20.1057C55.0668 19.9685 54.9428 19.8914 54.8135 19.8914H42.7133C42.5842 19.8917 42.4604 19.969 42.369 20.1062C42.2777 20.2434 42.2263 20.4294 42.2261 20.6235V22.974C42.2263 23.168 42.2777 23.354 42.369 23.4913C42.4604 23.6285 42.5842 23.7057 42.7133 23.7061Z" fill="white"></path>
<path d="M43.8046 18.8214C43.9341 18.8214 44.0583 18.7441 44.1498 18.6066C44.2414 18.469 44.2928 18.2825 44.2928 18.088V17.3854H53.2338V18.088C53.231 18.1868 53.2415 18.2855 53.2647 18.3781C53.288 18.4707 53.3235 18.5553 53.369 18.6267C53.4146 18.6982 53.4693 18.755 53.5299 18.7939C53.5905 18.8327 53.6556 18.8527 53.7215 18.8527C53.7874 18.8527 53.8525 18.8327 53.9131 18.7939C53.9737 18.755 54.0284 18.6982 54.074 18.6267C54.1195 18.5553 54.155 18.4707 54.1782 18.3781C54.2015 18.2855 54.212 18.1868 54.2092 18.088V16.6519C54.2093 16.5557 54.1968 16.4604 54.1723 16.3715C54.1479 16.2826 54.112 16.2019 54.0667 16.1338C54.0215 16.0658 53.9677 16.0119 53.9085 15.9752C53.8494 15.9385 53.786 15.9196 53.7219 15.9198H52.6582V11.8584C52.6582 11.8584 52.6582 11.8584 52.6582 11.849C52.6582 11.8209 52.6582 11.7927 52.6519 11.7632C52.6511 11.7429 52.6493 11.7228 52.6466 11.7029C52.6434 11.6823 52.6392 11.6622 52.6341 11.6425C52.6291 11.6153 52.6231 11.5884 52.6163 11.5621C52.6163 11.5621 52.6163 11.5621 52.6163 11.5527L49.2099 0.423702C49.1708 0.296609 49.1083 0.188992 49.0298 0.113567C48.9513 0.0381425 48.86 -0.00193787 48.7669 -0.00193787C48.6737 -0.00193787 48.5824 0.0381425 48.5039 0.113567C48.4254 0.188992 48.3629 0.296609 48.3238 0.423702L47.3868 3.48619C47.3387 3.6613 47.3376 3.85755 47.3837 4.03385C47.4298 4.21016 47.5194 4.35284 47.634 4.43202C47.7485 4.51121 47.8789 4.52076 47.998 4.45868C48.1171 4.39659 48.2156 4.26769 48.2729 4.09895L48.7673 2.48994L51.4088 11.129H46.1178L46.5988 9.55752C46.6255 9.47009 46.6405 9.37562 46.6429 9.27948C46.6453 9.18335 46.6351 9.08744 46.6129 8.99724C46.5906 8.90703 46.5568 8.82429 46.5132 8.75374C46.4697 8.6832 46.4173 8.62622 46.3591 8.58608C46.301 8.54593 46.2381 8.5234 46.1741 8.51976C46.1101 8.51613 46.0463 8.53146 45.9862 8.56489C45.9262 8.59832 45.8711 8.6492 45.8242 8.7146C45.7772 8.78001 45.7393 8.85867 45.7126 8.94609L44.9139 11.5527C44.9139 11.5527 44.9139 11.5527 44.9139 11.5621C44.9063 11.5882 44.9001 11.615 44.8952 11.6425C44.8902 11.6622 44.886 11.6824 44.8827 11.7029C44.8827 11.7216 44.8827 11.7431 44.8773 11.7632C44.8742 11.7916 44.8724 11.8203 44.872 11.849C44.872 11.849 44.872 11.849 44.872 11.8584V15.9198H43.8046C43.6754 15.9198 43.5515 15.9969 43.4601 16.1342C43.3687 16.2715 43.3174 16.4577 43.3174 16.6519V18.088C43.3174 18.2822 43.3687 18.4686 43.46 18.6061C43.5514 18.7436 43.6753 18.821 43.8046 18.8214ZM45.8447 12.5918H51.6819V15.9198H45.8447V12.5918Z" fill="white"></path>
<path d="M46.6981 7.47921C46.8156 7.56031 46.9498 7.56801 47.0711 7.50064C47.1924 7.43327 47.2909 7.29632 47.3451 7.11987L47.4076 6.91606C47.4366 6.8282 47.4537 6.73246 47.4577 6.63453C47.4617 6.53659 47.4526 6.43844 47.4309 6.34589C47.4092 6.25334 47.3754 6.16828 47.3314 6.09573C47.2874 6.02318 47.2342 5.96462 47.1749 5.92352C47.1156 5.88243 47.0514 5.85963 46.9862 5.85647C46.9209 5.85332 46.8559 5.86988 46.7949 5.90516C46.734 5.94045 46.6784 5.99375 46.6314 6.06191C46.5844 6.13006 46.547 6.21169 46.5214 6.30195L46.4589 6.50576C46.4321 6.59327 46.417 6.68787 46.4144 6.78416C46.4119 6.88046 46.4221 6.97655 46.4443 7.06695C46.4665 7.15736 46.5003 7.2403 46.5439 7.31104C46.5874 7.38177 46.6398 7.43892 46.6981 7.47921Z" fill="white"></path>
<path d="M48.7639 30.5243C48.6351 30.5253 48.5119 30.6029 48.4211 30.7401C48.3303 30.8773 48.2793 31.0629 48.2793 31.2564V33.4929C48.2793 33.5891 48.2919 33.6844 48.3165 33.7734C48.341 33.8623 48.377 33.943 48.4223 34.011C48.4677 34.079 48.5215 34.1329 48.5807 34.1696C48.6399 34.2064 48.7034 34.2252 48.7674 34.225H49.7054C49.8311 34.2169 49.9499 34.1362 50.037 33.9996C50.124 33.8631 50.1726 33.6813 50.1726 33.4922C50.1726 33.3031 50.124 33.1213 50.037 32.9848C49.9499 32.8483 49.8311 32.7675 49.7054 32.7594H49.2592V31.2564C49.2593 31.1591 49.2465 31.0629 49.2216 30.9732C49.1966 30.8835 49.16 30.8021 49.1139 30.734C49.0678 30.6658 49.013 30.6121 48.9529 30.5761C48.8928 30.5401 48.8286 30.5225 48.7639 30.5243Z" fill="white"></path>
<path d="M40.1111 60H56.7634C56.8292 60.0042 56.8948 59.9884 56.9565 59.9535C57.0181 59.9186 57.0744 59.8653 57.1219 59.7968C57.1695 59.7284 57.2073 59.6461 57.2332 59.5551C57.259 59.4641 57.2724 59.3662 57.2724 59.2672C57.2724 59.1683 57.259 59.0703 57.2332 58.9793C57.2073 58.8883 57.1695 58.8061 57.1219 58.7376C57.0744 58.6692 57.0181 58.6159 56.9565 58.581C56.8948 58.546 56.8292 58.5302 56.7634 58.5345H55.3016V53.4714C55.3016 53.2769 55.2502 53.0904 55.1586 52.9528C55.0671 52.8153 54.9429 52.738 54.8134 52.738C54.684 52.738 54.5598 52.8153 54.4683 52.9528C54.3767 53.0904 54.3253 53.2769 54.3253 53.4714V58.5345H52.263V53.4714C52.2576 53.2825 52.2038 53.104 52.113 52.9732C52.0221 52.8424 51.9011 52.7693 51.7753 52.7693C51.6494 52.7693 51.5284 52.8424 51.4375 52.9732C51.3467 53.104 51.2929 53.2825 51.2876 53.4714V58.5345H49.2511V53.4714C49.2457 53.2825 49.192 53.104 49.1011 52.9732C49.0102 52.8424 48.8892 52.7693 48.7634 52.7693C48.6375 52.7693 48.5165 52.8424 48.4257 52.9732C48.3348 53.104 48.2811 53.2825 48.2757 53.4714V58.5345H46.2401V53.4714C46.2401 53.2769 46.1887 53.0904 46.0971 52.9528C46.0056 52.8153 45.8814 52.738 45.752 52.738C45.6225 52.738 45.4983 52.8153 45.4068 52.9528C45.3152 53.0904 45.2638 53.2769 45.2638 53.4714V58.5345H43.2015V51.015H56.0298C56.1593 51.015 56.2834 50.9377 56.375 50.8002C56.4665 50.6626 56.5179 50.4761 56.5179 50.2816C56.5179 50.0871 56.4665 49.9005 56.375 49.763C56.2834 49.6254 56.1593 49.5481 56.0298 49.5481H55.3016V44.103C55.3016 43.9085 55.2502 43.7219 55.1586 43.5844C55.0671 43.4468 54.9429 43.3695 54.8134 43.3695C54.684 43.3695 54.5598 43.4468 54.4683 43.5844C54.3767 43.7219 54.3253 43.9085 54.3253 44.103V49.5481H52.263V44.4865C52.2658 44.3876 52.2552 44.2889 52.232 44.1963C52.2088 44.1037 52.1733 44.0191 52.1277 43.9477C52.0822 43.8762 52.0274 43.8194 51.9669 43.7805C51.9063 43.7417 51.8411 43.7217 51.7753 43.7217C51.7094 43.7217 51.6442 43.7417 51.5836 43.7805C51.5231 43.8194 51.4683 43.8762 51.4228 43.9477C51.3772 44.0191 51.3417 44.1037 51.3185 44.1963C51.2953 44.2889 51.2847 44.3876 51.2876 44.4865V49.5481H49.2511V44.4865C49.2539 44.3876 49.2434 44.2889 49.2201 44.1963C49.1969 44.1037 49.1614 44.0191 49.1159 43.9477C49.0703 43.8762 49.0156 43.8194 48.955 43.7805C48.8944 43.7417 48.8292 43.7217 48.7634 43.7217C48.6975 43.7217 48.6323 43.7417 48.5718 43.7805C48.5112 43.8194 48.4565 43.8762 48.4109 43.9477C48.3653 44.0191 48.3299 44.1037 48.3066 44.1963C48.2834 44.2889 48.2729 44.3876 48.2757 44.4865V49.5481H46.2401V44.4865C46.2401 44.2919 46.1887 44.1054 46.0971 43.9678C46.0056 43.8303 45.8814 43.753 45.752 43.753C45.6225 43.753 45.4983 43.8303 45.4068 43.9678C45.3152 44.1054 45.2638 44.2919 45.2638 44.4865V49.5481H43.2015V44.103C43.2043 44.0041 43.1938 43.9054 43.1705 43.8128C43.1473 43.7202 43.1118 43.6357 43.0662 43.5642C43.0207 43.4928 42.966 43.4359 42.9054 43.397C42.8448 43.3582 42.7796 43.3382 42.7138 43.3382C42.6479 43.3382 42.5827 43.3582 42.5221 43.397C42.4616 43.4359 42.4069 43.4928 42.3613 43.5642C42.3157 43.6357 42.2803 43.7202 42.257 43.8128C42.2338 43.9054 42.2232 44.0041 42.2261 44.103V49.5481H41.497C41.3675 49.5481 41.2433 49.6254 41.1518 49.763C41.0603 49.9005 41.0088 50.0871 41.0088 50.2816C41.0088 50.4761 41.0603 50.6626 41.1518 50.8002C41.2433 50.9377 41.3675 51.015 41.497 51.015H42.2261V58.5345H40.1111C40.0453 58.5302 39.9796 58.546 39.9179 58.581C39.8563 58.6159 39.8 58.6692 39.7525 58.7376C39.7049 58.8061 39.6671 58.8883 39.6412 58.9793C39.6154 59.0703 39.6021 59.1683 39.6021 59.2672C39.6021 59.3662 39.6154 59.4641 39.6412 59.5551C39.6671 59.6461 39.7049 59.7284 39.7525 59.7968C39.8 59.8653 39.8563 59.9186 39.9179 59.9535C39.9796 59.9884 40.0453 60.0042 40.1111 60Z" fill="white"></path>
<path d="M59.156 60H59.5129C59.6387 59.9919 59.7575 59.9112 59.8446 59.7746C59.9316 59.6381 59.9802 59.4563 59.9802 59.2672C59.9802 59.0781 59.9316 58.8963 59.8446 58.7598C59.7575 58.6233 59.6387 58.5425 59.5129 58.5345H59.156C59.0902 58.5302 59.0245 58.546 58.9629 58.581C58.9012 58.6159 58.845 58.6692 58.7974 58.7376C58.7498 58.8061 58.712 58.8883 58.6862 58.9793C58.6603 59.0703 58.647 59.1683 58.647 59.2672C58.647 59.3662 58.6603 59.4641 58.6862 59.5551C58.712 59.6461 58.7498 59.7284 58.7974 59.7968C58.845 59.8653 58.9012 59.9186 58.9629 59.9535C59.0245 59.9884 59.0902 60.0042 59.156 60Z" fill="white"></path>
</g>
<g clip-path="url('#clip2_1084_972')">
<path d="M25.4564 29.9517H26.389C26.5147 29.9436 26.6335 29.8629 26.7206 29.7264C26.8076 29.5898 26.8562 29.408 26.8562 29.219C26.8562 29.0299 26.8076 28.8481 26.7206 28.7115C26.6335 28.575 26.5147 28.4943 26.389 28.4862H25.9428V26.4535H32.6867V28.4862H30.3664C30.2407 28.4943 30.1219 28.575 30.0348 28.7115C29.9478 28.8481 29.8991 29.0299 29.8991 29.219C29.8991 29.408 29.9478 29.5898 30.0348 29.7264C30.1219 29.8629 30.2407 29.9436 30.3664 29.9517H33.173C33.237 29.9517 33.3004 29.9328 33.3595 29.896C33.4186 29.8592 33.4723 29.8053 33.5176 29.7373C33.5628 29.6693 33.5987 29.5886 33.6232 29.4998C33.6477 29.411 33.6603 29.3158 33.6603 29.2196V25.7214C33.6604 25.6251 33.6479 25.5298 33.6235 25.4408C33.599 25.3518 33.5632 25.271 33.5179 25.2028C33.4726 25.1347 33.4189 25.0807 33.3597 25.0438C33.3005 25.0069 33.2371 24.9879 33.173 24.9879H32.6028C32.2119 22.4511 31.8282 19.7318 31.4614 16.8879C31.4533 16.7883 31.4317 16.6922 31.3979 16.6057C31.3641 16.5192 31.3188 16.444 31.2649 16.3849C31.2109 16.3257 31.1494 16.2839 31.0843 16.262C31.0191 16.24 30.9516 16.2384 30.886 16.2573C30.8204 16.2762 30.7581 16.3151 30.703 16.3717C30.6478 16.4283 30.601 16.5013 30.5654 16.5862C30.5298 16.6711 30.5062 16.7661 30.4961 16.8653C30.486 16.9645 30.4895 17.0657 30.5065 17.1628C30.547 17.4756 30.5874 17.7885 30.6279 18.1014L29.8444 19.0547C29.7438 19.1769 29.6796 19.354 29.666 19.5473C29.6523 19.7405 29.6903 19.934 29.7716 20.0851C29.8529 20.2363 29.9709 20.3327 30.0995 20.3532C30.2281 20.3737 30.3569 20.3166 30.4574 20.1944L30.8448 19.7224C30.9965 20.838 31.1503 21.929 31.3061 22.9954L30.8037 22.5758C30.6905 22.4835 30.5577 22.4621 30.4341 22.5163C30.3105 22.5705 30.2062 22.6958 30.1438 22.865C30.0815 23.0343 30.0661 23.2336 30.1011 23.4198C30.1361 23.6059 30.2186 23.7638 30.3307 23.8589L31.5908 24.9075C31.5953 24.9343 31.5988 24.9611 31.6033 24.9879H27.027L27.0404 24.9021L28.2952 23.8576C28.4072 23.7624 28.4898 23.6046 28.5248 23.4185C28.5598 23.2323 28.5444 23.0329 28.4821 22.8637C28.4197 22.6945 28.3153 22.5691 28.1917 22.515C28.0682 22.4608 27.9353 22.4821 27.8222 22.5744L27.326 22.9874C27.4813 21.9268 27.6348 20.842 27.7856 19.7278L28.1684 20.1931C28.269 20.3152 28.3978 20.3723 28.5264 20.3518C28.655 20.3314 28.7729 20.2349 28.8542 20.0838C28.9355 19.9327 28.9736 19.7392 28.9599 19.5459C28.9463 19.3527 28.8821 19.1755 28.7815 19.0534L28.0024 18.1014C28.0435 17.7889 28.0845 17.4765 28.1256 17.1628C28.1395 17.067 28.1405 16.968 28.1285 16.8716C28.1165 16.7753 28.0917 16.6835 28.0556 16.6018C28.0195 16.5201 27.9729 16.4501 27.9185 16.396C27.8641 16.3419 27.803 16.3047 27.7389 16.2868C27.6747 16.2688 27.6088 16.2704 27.5451 16.2914C27.4813 16.3124 27.4211 16.3525 27.3678 16.4092C27.3146 16.4659 27.2695 16.538 27.2352 16.6214C27.2008 16.7048 27.178 16.7977 27.168 16.8946C26.8004 19.7385 26.4166 22.4578 26.0258 24.9946H25.4564C25.3269 24.9946 25.2028 25.0719 25.1112 25.2095C25.0197 25.347 24.9683 25.5336 24.9683 25.7281V29.2263C24.9697 29.4195 25.0217 29.6039 25.1131 29.7398C25.2045 29.8756 25.3279 29.9517 25.4564 29.9517Z" fill="white"></path>
<path d="M28.238 28.4862C28.1722 28.4819 28.1065 28.4978 28.0449 28.5327C27.9833 28.5676 27.927 28.6209 27.8794 28.6894C27.8319 28.7578 27.794 28.84 27.7682 28.931C27.7423 29.0221 27.729 29.12 27.729 29.2189C27.729 29.3179 27.7423 29.4158 27.7682 29.5068C27.794 29.5979 27.8319 29.6801 27.8794 29.7485C27.927 29.817 27.9833 29.8703 28.0449 29.9052C28.1065 29.9401 28.1722 29.9559 28.238 29.9517H28.3201C28.4459 29.9436 28.5647 29.8629 28.6517 29.7264C28.7388 29.5898 28.7874 29.408 28.7874 29.2189C28.7874 29.0299 28.7388 28.8481 28.6517 28.7115C28.5647 28.575 28.4459 28.4943 28.3201 28.4862H28.238Z" fill="white"></path>
<path d="M27.3517 15.2159H29.6103C29.6761 15.2201 29.7418 15.2043 29.8035 15.1694C29.8651 15.1344 29.9214 15.0811 29.9689 15.0127C30.0165 14.9442 30.0543 14.862 30.0802 14.771C30.106 14.68 30.1194 14.5821 30.1194 14.4831C30.1194 14.3841 30.106 14.2862 30.0802 14.1952C30.0543 14.1042 30.0165 14.022 29.9689 13.9535C29.9214 13.885 29.8651 13.8318 29.8035 13.7968C29.7418 13.7619 29.6761 13.7461 29.6103 13.7503H27.8425V12.2352H30.7955V14.4811C30.8046 14.6657 30.8598 14.8383 30.9501 14.9643C31.0404 15.0902 31.1591 15.1602 31.2823 15.1602C31.4055 15.1602 31.5241 15.0902 31.6144 14.9643C31.7047 14.8383 31.76 14.6657 31.7691 14.4811V11.5017C31.7688 11.3077 31.7174 11.1217 31.6261 10.9845C31.5348 10.8472 31.411 10.77 31.2818 10.7696H30.7223C30.1485 5.73478 29.8299 2.16814 29.8022 1.85974C29.79 1.68167 29.7349 1.51647 29.6471 1.39537C29.5594 1.27428 29.4452 1.20567 29.326 1.20254C29.2069 1.1994 29.0912 1.26194 29.0007 1.37835C28.9101 1.49475 28.8512 1.65695 28.8348 1.83427C28.8343 1.8405 28.8343 1.8468 28.8348 1.85304C28.8143 2.08634 28.4948 5.67712 27.9139 10.7696H27.3517C27.2874 10.7691 27.2237 10.7876 27.1642 10.8242C27.1048 10.8607 27.0507 10.9145 27.0051 10.9826C26.9595 11.0506 26.9233 11.1314 26.8985 11.2205C26.8738 11.3096 26.861 11.4052 26.8608 11.5017V14.4811C26.8606 14.5779 26.8732 14.6738 26.8978 14.7633C26.9224 14.8528 26.9585 14.9341 27.0042 15.0024C27.0498 15.0707 27.104 15.1248 27.1637 15.1614C27.2233 15.1981 27.2872 15.2166 27.3517 15.2159ZM29.315 6.96165C29.4328 8.08795 29.5711 9.37516 29.7299 10.7696H28.8991C29.0588 9.3698 29.1972 8.08795 29.3159 6.96165H29.315Z" fill="white"></path>
<path d="M22.7044 42.8909H28.4756C28.6013 42.8828 28.7201 42.802 28.8072 42.6655C28.8943 42.529 28.9429 42.3472 28.9429 42.1581C28.9429 41.969 28.8943 41.7872 28.8072 41.6507C28.7201 41.5141 28.6013 41.4334 28.4756 41.4253H23.1926V39.2867H35.4399V41.432H31.4054C31.3396 41.4278 31.2739 41.4436 31.2122 41.4785C31.1506 41.5134 31.0943 41.5667 31.0468 41.6352C30.9992 41.7037 30.9614 41.7859 30.9355 41.8769C30.9097 41.9679 30.8963 42.0658 30.8963 42.1648C30.8963 42.2637 30.9097 42.3617 30.9355 42.4527C30.9614 42.5437 30.9992 42.6259 31.0468 42.6944C31.0943 42.7628 31.1506 42.8161 31.2122 42.851C31.2739 42.886 31.3396 42.9018 31.4054 42.8976H35.9272C35.9912 42.8977 36.0547 42.8789 36.1139 42.8422C36.1731 42.8055 36.227 42.7516 36.2723 42.6836C36.3176 42.6156 36.3536 42.5348 36.3782 42.4459C36.4027 42.357 36.4153 42.2617 36.4153 42.1655V38.5586C36.4151 38.3643 36.3636 38.1781 36.272 38.0408C36.1805 37.9036 36.0565 37.8265 35.9272 37.8265H34.9991C34.5627 35.9493 34.1263 33.8254 33.7015 31.5165C33.6773 31.384 33.6286 31.2645 33.5611 31.1717C33.4936 31.0789 33.4101 31.0167 33.3201 30.9922C33.2301 30.9677 33.1373 30.9818 33.0524 31.0331C32.9675 31.0843 32.894 31.1706 32.8404 31.2818L31.7079 33.1832C31.6652 33.2548 31.6323 33.3384 31.6111 33.4292C31.5898 33.52 31.5807 33.6161 31.5843 33.7122C31.5878 33.8082 31.6039 33.9023 31.6316 33.989C31.6593 34.0758 31.6981 34.1534 31.7458 34.2176C31.7935 34.2818 31.8492 34.3312 31.9096 34.3631C31.97 34.395 32.034 34.4087 32.0979 34.4034C32.1618 34.3981 32.2245 34.3739 32.2822 34.3323C32.3399 34.2906 32.3916 34.2323 32.4343 34.1606L33.0063 33.2006C33.2443 34.4377 33.4823 35.6132 33.7203 36.727L32.7859 35.7442C32.6794 35.6327 32.5478 35.5893 32.42 35.6237C32.2922 35.658 32.1788 35.7672 32.1046 35.9272C32.0304 36.0872 32.0015 36.285 32.0244 36.477C32.0472 36.6689 32.1199 36.8394 32.2264 36.9509L33.0643 37.8319H31.6535L30.7289 32.6777C30.7002 32.5231 30.6386 32.387 30.5535 32.2901C30.4684 32.1933 30.3645 32.141 30.2577 32.1413H28.3783C28.2716 32.1412 28.1678 32.1936 28.0827 32.2904C27.9976 32.3873 27.936 32.5233 27.9071 32.6777L26.9826 37.8319H25.5226L26.3606 36.9509C26.4671 36.8394 26.5398 36.6689 26.5626 36.477C26.5855 36.285 26.5566 36.0872 26.4824 35.9272C26.4082 35.7672 26.2947 35.658 26.167 35.6237C26.0392 35.5893 25.9076 35.6327 25.8011 35.7442L24.9167 36.6747C25.1505 35.594 25.3843 34.4489 25.6145 33.2489L26.1571 34.1606C26.2434 34.3054 26.3644 34.3927 26.4935 34.4034C26.6226 34.4141 26.7493 34.3472 26.8456 34.2176C26.9419 34.088 27.0001 33.9062 27.0072 33.7122C27.0143 33.5182 26.9698 33.3279 26.8835 33.1832L25.7493 31.2792C25.7422 31.2671 25.7332 31.259 25.7261 31.247C25.719 31.2349 25.6984 31.2054 25.6824 31.1866C25.6663 31.1679 25.6547 31.1598 25.6413 31.1478C25.6279 31.1357 25.6154 31.1223 25.602 31.1116C25.5887 31.1008 25.5637 31.0888 25.544 31.078C25.5244 31.0673 25.5262 31.066 25.5164 31.0619H25.5119C25.4916 31.0546 25.4711 31.0493 25.4503 31.0459C25.4387 31.0459 25.4271 31.0391 25.4155 31.0391C25.3992 31.0371 25.3828 31.0371 25.3665 31.0391C25.3513 31.0391 25.3361 31.0391 25.3209 31.0391C25.3058 31.0391 25.2897 31.0499 25.2745 31.0552C25.2594 31.0606 25.2442 31.0646 25.2299 31.0713C25.2156 31.078 25.2005 31.0914 25.1853 31.1022C25.1713 31.1104 25.1576 31.1198 25.1442 31.1303C25.1326 31.1397 25.1228 31.1531 25.1121 31.1638C25.0959 31.1793 25.0804 31.1963 25.0657 31.2148C25.0572 31.2271 25.0492 31.2401 25.0416 31.2537C25.0284 31.2733 25.0159 31.2939 25.0041 31.3154C24.9941 31.336 24.9849 31.3575 24.9765 31.3797C24.9693 31.3985 24.9604 31.4159 24.9542 31.436C24.9451 31.4647 24.9374 31.4943 24.931 31.5245C24.931 31.5379 24.9238 31.5514 24.9211 31.5648C24.499 33.8536 24.0662 35.9533 23.6334 37.8184H22.7044C22.6403 37.8193 22.5769 37.8392 22.5179 37.8768C22.4589 37.9145 22.4055 37.9693 22.3605 38.038C22.3156 38.1067 22.2802 38.1881 22.2562 38.2774C22.2322 38.3667 22.2201 38.4623 22.2207 38.5586V42.1588C22.2207 42.352 22.2716 42.5374 22.3622 42.6745C22.4528 42.8117 22.5758 42.8894 22.7044 42.8909ZM28.7478 33.5948H29.8838L30.6432 37.8265H27.9883L28.7478 33.5948Z" fill="white"></path>
<path d="M25.8329 44.4502L25.476 45.6798C25.4465 45.7687 25.4293 45.8657 25.4256 45.9649C25.4218 46.0641 25.4316 46.1634 25.4542 46.2568C25.4768 46.3501 25.5118 46.4356 25.5571 46.508C25.6024 46.5804 25.6571 46.6381 25.7177 46.6778C25.7783 46.7174 25.8437 46.7381 25.9098 46.7385C25.976 46.739 26.0414 46.7192 26.1023 46.6804C26.1632 46.6416 26.2182 46.5846 26.2639 46.5128C26.3097 46.4411 26.3452 46.3561 26.3684 46.2631L26.7254 45.0349C26.7543 44.9461 26.771 44.8494 26.7744 44.7506C26.7778 44.6519 26.7679 44.5531 26.7452 44.4603C26.7225 44.3674 26.6876 44.2825 26.6424 44.2105C26.5973 44.1386 26.5429 44.0811 26.4826 44.0416C26.4222 44.002 26.3572 43.9813 26.2914 43.9806C26.2256 43.9798 26.1603 43.9992 26.0996 44.0374C26.0389 44.0755 25.984 44.1318 25.9382 44.2028C25.8923 44.2737 25.8565 44.3579 25.8329 44.4502Z" fill="white"></path>
<path d="M32.1574 44.0695C32.0387 44.1472 31.9454 44.2925 31.8979 44.4734C31.8504 44.6544 31.8526 44.8563 31.904 45.0349L32.261 46.2631C32.2988 46.3937 32.3612 46.5049 32.4404 46.5832C32.5197 46.6616 32.6123 46.7036 32.7072 46.7042C32.788 46.7041 32.8675 46.6737 32.9386 46.6159C33.0097 46.5581 33.0701 46.4746 33.1143 46.373C33.1586 46.2714 33.1853 46.1548 33.1921 46.0338C33.199 45.9128 33.1856 45.7911 33.1534 45.6798L32.7964 44.4502C32.7448 44.273 32.6488 44.1335 32.5291 44.0622C32.4094 43.9909 32.2758 43.9935 32.1574 44.0695Z" fill="white"></path>
<path d="M14.32 58.9434H25.3859C25.4517 58.9476 25.5174 58.9318 25.579 58.8969C25.6406 58.862 25.6969 58.8087 25.7445 58.7402C25.792 58.6718 25.8299 58.5896 25.8557 58.4985C25.8816 58.4075 25.8949 58.3096 25.8949 58.2106C25.8949 58.1117 25.8816 58.0137 25.8557 57.9227C25.8299 57.8317 25.792 57.7495 25.7445 57.681C25.6969 57.6126 25.6406 57.5593 25.579 57.5244C25.5174 57.4895 25.4517 57.4736 25.3859 57.4779H23.9107C24.1222 55.8622 24.7228 52.2338 26.0757 49.7667L26.0953 49.7412C26.1127 49.711 26.1288 49.6792 26.1435 49.646C26.9306 48.2582 27.9649 47.2674 29.316 47.2674C33.0695 47.2674 34.3849 54.9102 34.7204 57.4779H33.7566C33.6908 57.4736 33.6252 57.4895 33.5635 57.5244C33.5019 57.5593 33.4456 57.6126 33.3981 57.681C33.3505 57.7495 33.3127 57.8317 33.2868 57.9227C33.261 58.0137 33.2476 58.1117 33.2476 58.2106C33.2476 58.3096 33.261 58.4075 33.2868 58.4985C33.3127 58.5896 33.3505 58.6718 33.3981 58.7402C33.4456 58.8087 33.5019 58.862 33.5635 58.8969C33.6252 58.9318 33.6908 58.9476 33.7566 58.9434H43.3473C43.4131 58.9476 43.4788 58.9318 43.5404 58.8969C43.6021 58.862 43.6583 58.8087 43.7059 58.7402C43.7535 58.6718 43.7913 58.5896 43.8172 58.4985C43.843 58.4075 43.8563 58.3096 43.8563 58.2106C43.8563 58.1117 43.843 58.0137 43.8172 57.9227C43.7913 57.8317 43.7535 57.7495 43.7059 57.681C43.6583 57.6126 43.6021 57.5593 43.5404 57.5244C43.4788 57.4895 43.4131 57.4736 43.3473 57.4779H42.2764C40.4515 54.6098 38.2829 48.6377 37.1353 45.2762C37.0754 45.1051 36.973 44.9764 36.8503 44.9182C36.7276 44.86 36.5946 44.8769 36.4801 44.9652C36.3657 45.0536 36.2791 45.2063 36.2392 45.39C36.1993 45.5738 36.2093 45.7739 36.267 45.9466C36.6239 46.9871 37.0701 48.2716 37.5842 49.6433L35.305 49.1217C35.2417 49.1072 35.1771 49.1116 35.1149 49.1345C35.0528 49.1575 34.9942 49.1986 34.9426 49.2556C34.8911 49.3126 34.8475 49.3842 34.8143 49.4665C34.7812 49.5488 34.7591 49.6401 34.7494 49.7352C34.7398 49.8303 34.7427 49.9273 34.758 50.0207C34.7732 50.1141 34.8006 50.202 34.8385 50.2796C34.8764 50.3571 34.9241 50.4226 34.9789 50.4724C35.0337 50.5222 35.0944 50.5553 35.1577 50.5698L38.2017 51.2671C39.0665 53.4889 40.0401 55.7683 40.9762 57.4779H36.2465L37.942 53.922C37.9794 53.8438 38.0061 53.7553 38.0206 53.6616C38.0352 53.5679 38.0374 53.4708 38.027 53.3759C38.0166 53.281 37.9938 53.19 37.96 53.1083C37.9262 53.0266 37.8821 52.9556 37.83 52.8996C37.778 52.8435 37.7191 52.8033 37.6568 52.7814C37.5944 52.7596 37.5298 52.7563 37.4666 52.772C37.4034 52.7876 37.3429 52.8218 37.2885 52.8725C37.2341 52.9233 37.1869 52.9897 37.1496 53.0678L35.5638 56.3878C35.2871 54.5495 34.6999 51.605 33.5594 49.2813L35.4335 46.6653C35.5204 46.5303 35.5696 46.3504 35.5709 46.1625C35.5721 45.9747 35.5253 45.7933 35.4402 45.6557C35.355 45.5182 35.238 45.4349 35.1132 45.4232C34.9884 45.4115 34.8654 45.4721 34.7695 45.5926L32.9267 48.163C32.02 46.7672 30.8394 45.7978 29.3089 45.7978C27.7784 45.7978 26.5915 46.7726 25.6839 48.1724L23.9161 45.6959C23.8209 45.568 23.6962 45.5013 23.5687 45.5102C23.4412 45.5191 23.3211 45.6028 23.2342 45.7433C23.1473 45.8838 23.1006 46.07 23.1041 46.2617C23.1077 46.4534 23.1611 46.6354 23.253 46.7686L25.0646 49.296C23.9286 51.613 23.3423 54.5508 23.0656 56.3864L21.4771 53.0678C21.4405 52.9869 21.3935 52.9178 21.3389 52.8645C21.2842 52.8113 21.223 52.7751 21.1589 52.7579C21.0948 52.7408 21.029 52.7431 20.9655 52.7647C20.902 52.7863 20.842 52.8268 20.789 52.8838C20.7361 52.9408 20.6913 53.0132 20.6572 53.0966C20.6232 53.18 20.6006 53.2728 20.5908 53.3696C20.581 53.4663 20.5842 53.565 20.6001 53.6599C20.6161 53.7547 20.6445 53.8439 20.6838 53.922L22.3794 57.4779H17.6496C18.5849 55.7656 19.5611 53.4781 20.4223 51.2671L23.469 50.5698C23.5323 50.5553 23.593 50.5222 23.6478 50.4724C23.7026 50.4226 23.7503 50.3571 23.7882 50.2796C23.8261 50.202 23.8535 50.1141 23.8688 50.0207C23.884 49.9273 23.8869 49.8303 23.8773 49.7352C23.8676 49.6401 23.8456 49.5488 23.8124 49.4665C23.7793 49.3842 23.7356 49.3126 23.6841 49.2556C23.6325 49.1986 23.5739 49.1575 23.5118 49.1345C23.4496 49.1116 23.385 49.1072 23.3217 49.1217L21.0425 49.6433C21.852 47.4698 22.5034 45.543 22.8274 44.5562C22.8849 44.3819 22.894 44.1805 22.8526 43.9962C22.8113 43.8118 22.7229 43.6597 22.6069 43.5733C22.491 43.4869 22.3569 43.4733 22.2342 43.5354C22.1115 43.5975 22.0103 43.7303 21.9528 43.9045C21.1764 46.259 18.5126 54.0815 16.3521 57.4779H14.32C14.2542 57.4736 14.1886 57.4895 14.1269 57.5244C14.0653 57.5593 14.009 57.6126 13.9615 57.681C13.9139 57.7495 13.8761 57.8317 13.8502 57.9227C13.8244 58.0137 13.811 58.1117 13.811 58.2106C13.811 58.3096 13.8244 58.4075 13.8502 58.4985C13.8761 58.5896 13.9139 58.6718 13.9615 58.7402C14.009 58.8087 14.0653 58.862 14.1269 58.8969C14.1886 58.9318 14.2542 58.9476 14.32 58.9434Z" fill="white"></path>
<path d="M28.9483 58.9434C29.0141 58.9476 29.0798 58.9318 29.1415 58.8969C29.2031 58.862 29.2594 58.8087 29.3069 58.7402C29.3545 58.6718 29.3923 58.5896 29.4182 58.4985C29.444 58.4075 29.4573 58.3096 29.4573 58.2106C29.4573 58.1117 29.444 58.0138 29.4182 57.9227C29.3923 57.8317 29.3545 57.7495 29.3069 57.6811C29.2594 57.6126 29.2031 57.5593 29.1415 57.5244C29.0798 57.4895 29.0141 57.4736 28.9483 57.4779H28.279C28.2132 57.4736 28.1475 57.4895 28.0859 57.5244C28.0243 57.5593 27.968 57.6126 27.9205 57.6811C27.8729 57.7495 27.8351 57.8317 27.8092 57.9227C27.7833 58.0138 27.77 58.1117 27.77 58.2106C27.77 58.3096 27.7833 58.4075 27.8092 58.4985C27.8351 58.5896 27.8729 58.6718 27.9205 58.7402C27.968 58.8087 28.0243 58.862 28.0859 58.8969C28.1475 58.9318 28.2132 58.9476 28.279 58.9434H28.9483Z" fill="white"></path>
<path d="M45.4284 58.9434H45.8514C45.9172 58.9476 45.9829 58.9318 46.0446 58.8969C46.1062 58.862 46.1625 58.8087 46.21 58.7402C46.2576 58.6718 46.2954 58.5896 46.3213 58.4985C46.3471 58.4075 46.3605 58.3096 46.3605 58.2106C46.3605 58.1117 46.3471 58.0138 46.3213 57.9227C46.2954 57.8317 46.2576 57.7495 46.21 57.6811C46.1625 57.6126 46.1062 57.5593 46.0446 57.5244C45.9829 57.4895 45.9172 57.4736 45.8514 57.4779H45.4284C45.3626 57.4736 45.297 57.4895 45.2353 57.5244C45.1737 57.5593 45.1174 57.6126 45.0699 57.6811C45.0223 57.7495 44.9845 57.8317 44.9586 57.9227C44.9328 58.0138 44.9194 58.1117 44.9194 58.2106C44.9194 58.3096 44.9328 58.4075 44.9586 58.4985C44.9845 58.5896 45.0223 58.6718 45.0699 58.7402C45.1174 58.8087 45.1737 58.862 45.2353 58.8969C45.297 58.9318 45.3626 58.9476 45.4284 58.9434Z" fill="white"></path>
</g>
<defs>
<clipPath id="clip0_1084_972">
<rect width="22.7563" height="53.9019" fill="white" transform="translate(0 5.0952)"></rect>
</clipPath>
<clipPath id="clip1_1084_972">
<rect width="20.3772" height="60" fill="white" transform="translate(39.623)"></rect>
</clipPath>
<clipPath id="clip2_1084_972">
<rect width="32.5077" height="57.7367" fill="white" transform="translate(13.832 1.20676)"></rect>
</clipPath>
</defs>
</svg>
