<svg width="139" height="283" viewBox="0 0 139 283" fill="none" xmlns="http://www.w3.org/2000/svg">
<line x1="0.5" y1="279" x2="0.500012" y2="-2.18557e-08" stroke="white"></line>
<path d="M138.354 279.354C138.549 279.158 138.549 278.842 138.354 278.646L135.172 275.464C134.976 275.269 134.66 275.269 134.464 275.464C134.269 275.66 134.269 275.976 134.464 276.172L137.293 279L134.464 281.828C134.269 282.024 134.269 282.34 134.464 282.536C134.66 282.731 134.976 282.731 135.172 282.536L138.354 279.354ZM1 279.5C1.1045 279.5 1.20891 279.5 1.31322 279.5C1.41754 279.5 1.52177 279.5 1.62591 279.5C1.73005 279.5 1.8341 279.5 1.93807 279.5C2.04203 279.5 2.1459 279.5 2.24969 279.5C2.35348 279.5 2.45717 279.5 2.56078 279.5C2.66439 279.5 2.76792 279.5 2.87135 279.5C2.97478 279.5 3.07813 279.5 3.18139 279.5C3.28465 279.5 3.38782 279.5 3.49091 279.5C3.59399 279.5 3.69699 279.5 3.7999 279.5C3.90281 279.5 4.00564 279.5 4.10838 279.5C4.21112 279.5 4.31377 279.5 4.41634 279.5C4.51891 279.5 4.62139 279.5 4.72378 279.5C4.82618 279.5 4.92849 279.5 5.03072 279.5C5.13294 279.5 5.23508 279.5 5.33714 279.5C5.43919 279.5 5.54116 279.5 5.64305 279.5C5.74494 279.5 5.84674 279.5 5.94845 279.5C6.05017 279.5 6.15181 279.5 6.25336 279.5C6.35491 279.5 6.45637 279.5 6.55776 279.5C6.65914 279.5 6.76044 279.5 6.86165 279.5C6.96287 279.5 7.064 279.5 7.16506 279.5C7.26611 279.5 7.36707 279.5 7.46796 279.5C7.56885 279.5 7.66965 279.5 7.77037 279.5C7.87109 279.5 7.97173 279.5 8.07229 279.5C8.17285 279.5 8.27332 279.5 8.37372 279.5C8.47412 279.5 8.57443 279.5 8.67466 279.5C8.77489 279.5 8.87505 279.5 8.97512 279.5C9.07519 279.5 9.17518 279.5 9.27509 279.5C9.375 279.5 9.47483 279.5 9.57458 279.5C9.67433 279.5 9.774 279.5 9.8736 279.5C9.97319 279.5 10.0727 279.5 10.1721 279.5C10.2716 279.5 10.3709 279.5 10.4702 279.5C10.5695 279.5 10.6687 279.5 10.7678 279.5C10.8669 279.5 10.9659 279.5 11.0649 279.5C11.1639 279.5 11.2627 279.5 11.3615 279.5C11.4603 279.5 11.5591 279.5 11.6577 279.5C11.7564 279.5 11.8549 279.5 11.9534 279.5C12.0519 279.5 12.1504 279.5 12.2487 279.5C12.347 279.5 12.4453 279.5 12.5435 279.5C12.6417 279.5 12.7398 279.5 12.8378 279.5C12.9359 279.5 13.0338 279.5 13.1317 279.5C13.2296 279.5 13.3274 279.5 13.4251 279.5C13.5229 279.5 13.6205 279.5 13.7181 279.5C13.8157 279.5 13.9132 279.5 14.0106 279.5C14.1081 279.5 14.2054 279.5 14.3027 279.5C14.4 279.5 14.4972 279.5 14.5943 279.5C14.6915 279.5 14.7885 279.5 14.8855 279.5C14.9825 279.5 15.0794 279.5 15.1763 279.5C15.2731 279.5 15.3699 279.5 15.4666 279.5C15.5633 279.5 15.6599 279.5 15.7565 279.5C15.853 279.5 15.9495 279.5 16.0459 279.5C16.1423 279.5 16.2386 279.5 16.3349 279.5C16.4311 279.5 16.5273 279.5 16.6235 279.5C16.7196 279.5 16.8156 279.5 16.9116 279.5C17.0076 279.5 17.1035 279.5 17.1993 279.5C17.2952 279.5 17.3909 279.5 17.4866 279.5C17.5823 279.5 17.6779 279.5 17.7735 279.5C17.869 279.5 17.9645 279.5 18.0599 279.5C18.1553 279.5 18.2507 279.5 18.346 279.5C18.4412 279.5 18.5364 279.5 18.6316 279.5C18.7267 279.5 18.8218 279.5 18.9168 279.5C19.0118 279.5 19.1067 279.5 19.2016 279.5C19.2964 279.5 19.3912 279.5 19.4859 279.5C19.5807 279.5 19.6753 279.5 19.7699 279.5C19.8645 279.5 19.959 279.5 20.0535 279.5C20.1479 279.5 20.2423 279.5 20.3366 279.5C20.4309 279.5 20.5252 279.5 20.6194 279.5C20.7136 279.5 20.8077 279.5 20.9017 279.5C20.9958 279.5 21.0898 279.5 21.1837 279.5C21.2776 279.5 21.3715 279.5 21.4653 279.5C21.5591 279.5 21.6528 279.5 21.7465 279.5C21.8401 279.5 21.9337 279.5 22.0272 279.5C22.1208 279.5 22.2142 279.5 22.3076 279.5C22.401 279.5 22.4944 279.5 22.5876 279.5C22.6809 279.5 22.7741 279.5 22.8673 279.5C22.9604 279.5 23.0535 279.5 23.1465 279.5C23.2395 279.5 23.3325 279.5 23.4254 279.5C23.5183 279.5 23.6111 279.5 23.7039 279.5C23.7966 279.5 23.8893 279.5 23.982 279.5C24.0746 279.5 24.1672 279.5 24.2597 279.5C24.3522 279.5 24.4447 279.5 24.5371 279.5C24.6294 279.5 24.7218 279.5 24.814 279.5C24.9063 279.5 24.9985 279.5 25.0907 279.5C25.1828 279.5 25.2749 279.5 25.3669 279.5C25.4589 279.5 25.5509 279.5 25.6428 279.5C25.7347 279.5 25.8266 279.5 25.9183 279.5C26.0101 279.5 26.1019 279.5 26.1935 279.5C26.2852 279.5 26.3768 279.5 26.4683 279.5C26.5599 279.5 26.6514 279.5 26.7428 279.5C26.8342 279.5 26.9256 279.5 27.0169 279.5C27.1082 279.5 27.1995 279.5 27.2907 279.5C27.3818 279.5 27.473 279.5 27.5641 279.5C27.6551 279.5 27.7462 279.5 27.8371 279.5C27.9281 279.5 28.019 279.5 28.1098 279.5C28.2007 279.5 28.2915 279.5 28.3822 279.5C28.4729 279.5 28.5636 279.5 28.6542 279.5C28.7449 279.5 28.8354 279.5 28.9259 279.5C29.0164 279.5 29.1069 279.5 29.1973 279.5C29.2877 279.5 29.378 279.5 29.4683 279.5C29.5586 279.5 29.6488 279.5 29.739 279.5C29.8292 279.5 29.9193 279.5 30.0094 279.5C30.0994 279.5 30.1894 279.5 30.2794 279.5C30.3694 279.5 30.4593 279.5 30.5491 279.5C30.639 279.5 30.7288 279.5 30.8185 279.5C30.9082 279.5 30.9979 279.5 31.0876 279.5C31.1772 279.5 31.2668 279.5 31.3563 279.5C31.4458 279.5 31.5353 279.5 31.6247 279.5C31.7142 279.5 31.8035 279.5 31.8928 279.5C31.9822 279.5 32.0714 279.5 32.1606 279.5C32.2499 279.5 32.339 279.5 32.4281 279.5C32.5172 279.5 32.6063 279.5 32.6953 279.5C32.7843 279.5 32.8733 279.5 32.9622 279.5C33.0511 279.5 33.1399 279.5 33.2287 279.5C33.3175 279.5 33.4063 279.5 33.495 279.5C33.5837 279.5 33.6724 279.5 33.761 279.5C33.8496 279.5 33.9381 279.5 34.0266 279.5C34.1151 279.5 34.2036 279.5 34.292 279.5C34.3804 279.5 34.4688 279.5 34.5571 279.5C34.6454 279.5 34.7336 279.5 34.8218 279.5C34.9101 279.5 34.9982 279.5 35.0863 279.5C35.1745 279.5 35.2625 279.5 35.3505 279.5C35.4386 279.5 35.5265 279.5 35.6145 279.5C35.7024 279.5 35.7903 279.5 35.8781 279.5C35.9659 279.5 36.0537 279.5 36.1414 279.5C36.2292 279.5 36.3169 279.5 36.4045 279.5C36.4922 279.5 36.5798 279.5 36.6673 279.5C36.7549 279.5 36.8424 279.5 36.9298 279.5C37.0173 279.5 37.1047 279.5 37.1921 279.5C37.2794 279.5 37.3668 279.5 37.4541 279.5C37.5413 279.5 37.6286 279.5 37.7158 279.5C37.803 279.5 37.8901 279.5 37.9772 279.5C38.0643 279.5 38.1514 279.5 38.2384 279.5C38.3254 279.5 38.4124 279.5 38.4993 279.5C38.5862 279.5 38.6731 279.5 38.7599 279.5C38.8468 279.5 38.9336 279.5 39.0203 279.5C39.1071 279.5 39.1938 279.5 39.2805 279.5C39.3671 279.5 39.4538 279.5 39.5403 279.5C39.6269 279.5 39.7135 279.5 39.8 279.5C39.8865 279.5 39.9729 279.5 40.0594 279.5C40.1458 279.5 40.2322 279.5 40.3185 279.5C40.4048 279.5 40.4911 279.5 40.5774 279.5C40.6636 279.5 40.7498 279.5 40.836 279.5C40.9222 279.5 41.0083 279.5 41.0944 279.5C41.1805 279.5 41.2666 279.5 41.3526 279.5C41.4386 279.5 41.5246 279.5 41.6105 279.5C41.6964 279.5 41.7823 279.5 41.8682 279.5C41.954 279.5 42.0399 279.5 42.1256 279.5C42.2114 279.5 42.2972 279.5 42.3829 279.5C42.4686 279.5 42.5542 279.5 42.6399 279.5C42.7255 279.5 42.8111 279.5 42.8966 279.5C42.9822 279.5 43.0677 279.5 43.1532 279.5C43.2386 279.5 43.3241 279.5 43.4095 279.5C43.4949 279.5 43.5803 279.5 43.6656 279.5C43.7509 279.5 43.8362 279.5 43.9215 279.5C44.0067 279.5 44.0919 279.5 44.1771 279.5C44.2623 279.5 44.3475 279.5 44.4326 279.5C44.5177 279.5 44.6028 279.5 44.6878 279.5C44.7729 279.5 44.8579 279.5 44.9428 279.5C45.0278 279.5 45.1128 279.5 45.1977 279.5C45.2826 279.5 45.3674 279.5 45.4523 279.5C45.5371 279.5 45.6219 279.5 45.7067 279.5C45.7915 279.5 45.8762 279.5 45.9609 279.5C46.0456 279.5 46.1303 279.5 46.2149 279.5C46.2995 279.5 46.3841 279.5 46.4687 279.5C46.5533 279.5 46.6378 279.5 46.7223 279.5C46.8068 279.5 46.8913 279.5 46.9757 279.5C47.0602 279.5 47.1446 279.5 47.229 279.5C47.3134 279.5 47.3977 279.5 47.482 279.5C47.5663 279.5 47.6506 279.5 47.7349 279.5C47.8191 279.5 47.9033 279.5 47.9875 279.5C48.0717 279.5 48.1559 279.5 48.24 279.5C48.3242 279.5 48.4083 279.5 48.4923 279.5C48.5764 279.5 48.6604 279.5 48.7445 279.5C48.8285 279.5 48.9125 279.5 48.9964 279.5C49.0804 279.5 49.1643 279.5 49.2482 279.5C49.3321 279.5 49.4159 279.5 49.4998 279.5C49.5836 279.5 49.6674 279.5 49.7512 279.5C49.835 279.5 49.9188 279.5 50.0025 279.5C50.0862 279.5 50.1699 279.5 50.2536 279.5C50.3373 279.5 50.4209 279.5 50.5045 279.5C50.5881 279.5 50.6717 279.5 50.7553 279.5C50.8389 279.5 50.9224 279.5 51.0059 279.5C51.0894 279.5 51.1729 279.5 51.2564 279.5C51.3398 279.5 51.4232 279.5 51.5067 279.5C51.5901 279.5 51.6734 279.5 51.7568 279.5C51.8402 279.5 51.9235 279.5 52.0068 279.5C52.0901 279.5 52.1734 279.5 52.2566 279.5C52.3399 279.5 52.4231 279.5 52.5063 279.5C52.5896 279.5 52.6727 279.5 52.7559 279.5C52.8391 279.5 52.9222 279.5 53.0053 279.5C53.0884 279.5 53.1715 279.5 53.2546 279.5C53.3376 279.5 53.4207 279.5 53.5037 279.5C53.5867 279.5 53.6697 279.5 53.7527 279.5C53.8357 279.5 53.9186 279.5 54.0016 279.5C54.0845 279.5 54.1674 279.5 54.2503 279.5C54.3332 279.5 54.416 279.5 54.4989 279.5C54.5817 279.5 54.6646 279.5 54.7474 279.5C54.8302 279.5 54.9129 279.5 54.9957 279.5C55.0785 279.5 55.1612 279.5 55.2439 279.5C55.3266 279.5 55.4093 279.5 55.492 279.5C55.5747 279.5 55.6574 279.5 55.74 279.5C55.8226 279.5 55.9053 279.5 55.9879 279.5C56.0705 279.5 56.153 279.5 56.2356 279.5C56.3182 279.5 56.4007 279.5 56.4832 279.5C56.5658 279.5 56.6483 279.5 56.7307 279.5C56.8132 279.5 56.8957 279.5 56.9782 279.5C57.0606 279.5 57.143 279.5 57.2255 279.5C57.3079 279.5 57.3903 279.5 57.4727 279.5C57.555 279.5 57.6374 279.5 57.7198 279.5C57.8021 279.5 57.8844 279.5 57.9667 279.5C58.0491 279.5 58.1314 279.5 58.2136 279.5C58.2959 279.5 58.3782 279.5 58.4604 279.5C58.5427 279.5 58.6249 279.5 58.7071 279.5C58.7894 279.5 58.8716 279.5 58.9538 279.5C59.0359 279.5 59.1181 279.5 59.2003 279.5C59.2824 279.5 59.3646 279.5 59.4467 279.5C59.5288 279.5 59.611 279.5 59.6931 279.5C59.7752 279.5 59.8572 279.5 59.9393 279.5C60.0214 279.5 60.1034 279.5 60.1855 279.5C60.2675 279.5 60.3496 279.5 60.4316 279.5C60.5136 279.5 60.5956 279.5 60.6776 279.5C60.7596 279.5 60.8416 279.5 60.9236 279.5C61.0055 279.5 61.0875 279.5 61.1694 279.5C61.2514 279.5 61.3333 279.5 61.4152 279.5C61.4972 279.5 61.5791 279.5 61.661 279.5C61.7429 279.5 61.8248 279.5 61.9066 279.5C61.9885 279.5 62.0704 279.5 62.1522 279.5C62.2341 279.5 62.3159 279.5 62.3978 279.5C62.4796 279.5 62.5614 279.5 62.6433 279.5C62.7251 279.5 62.8069 279.5 62.8887 279.5C62.9705 279.5 63.0523 279.5 63.134 279.5C63.2158 279.5 63.2976 279.5 63.3793 279.5C63.4611 279.5 63.5428 279.5 63.6246 279.5C63.7063 279.5 63.7881 279.5 63.8698 279.5C63.9515 279.5 64.0332 279.5 64.1149 279.5C64.1967 279.5 64.2784 279.5 64.3601 279.5C64.4417 279.5 64.5234 279.5 64.6051 279.5C64.6868 279.5 64.7685 279.5 64.8501 279.5C64.9318 279.5 65.0135 279.5 65.0951 279.5C65.1768 279.5 65.2584 279.5 65.3401 279.5C65.4217 279.5 65.5033 279.5 65.585 279.5C65.6666 279.5 65.7482 279.5 65.8298 279.5C65.9115 279.5 65.9931 279.5 66.0747 279.5C66.1563 279.5 66.2379 279.5 66.3195 279.5C66.4011 279.5 66.4827 279.5 66.5643 279.5C66.6459 279.5 66.7275 279.5 66.8091 279.5C66.8906 279.5 66.9722 279.5 67.0538 279.5C67.1354 279.5 67.2169 279.5 67.2985 279.5C67.3801 279.5 67.4616 279.5 67.5432 279.5C67.6248 279.5 67.7063 279.5 67.7879 279.5C67.8694 279.5 67.951 279.5 68.0326 279.5C68.1141 279.5 68.1957 279.5 68.2772 279.5C68.3588 279.5 68.4403 279.5 68.5219 279.5C68.6034 279.5 68.6849 279.5 68.7665 279.5C68.848 279.5 68.9296 279.5 69.0111 279.5C69.0927 279.5 69.1742 279.5 69.2557 279.5C69.3373 279.5 69.4188 279.5 69.5004 279.5C69.5819 279.5 69.6634 279.5 69.745 279.5C69.8265 279.5 69.9081 279.5 69.9896 279.5C70.0712 279.5 70.1527 279.5 70.2342 279.5C70.3158 279.5 70.3973 279.5 70.4789 279.5C70.5604 279.5 70.642 279.5 70.7235 279.5C70.8051 279.5 70.8866 279.5 70.9682 279.5C71.0497 279.5 71.1313 279.5 71.2128 279.5C71.2944 279.5 71.376 279.5 71.4575 279.5C71.5391 279.5 71.6206 279.5 71.7022 279.5C71.7838 279.5 71.8654 279.5 71.9469 279.5C72.0285 279.5 72.1101 279.5 72.1917 279.5C72.2733 279.5 72.3548 279.5 72.4364 279.5C72.518 279.5 72.5996 279.5 72.6812 279.5C72.7628 279.5 72.8444 279.5 72.926 279.5C73.0076 279.5 73.0893 279.5 73.1709 279.5C73.2525 279.5 73.3341 279.5 73.4157 279.5C73.4974 279.5 73.579 279.5 73.6607 279.5C73.7423 279.5 73.8239 279.5 73.9056 279.5C73.9873 279.5 74.0689 279.5 74.1506 279.5C74.2322 279.5 74.3139 279.5 74.3956 279.5C74.4773 279.5 74.559 279.5 74.6407 279.5C74.7224 279.5 74.8041 279.5 74.8858 279.5C74.9675 279.5 75.0492 279.5 75.1309 279.5C75.2127 279.5 75.2944 279.5 75.3761 279.5C75.4579 279.5 75.5396 279.5 75.6214 279.5C75.7031 279.5 75.7849 279.5 75.8667 279.5C75.9485 279.5 76.0303 279.5 76.112 279.5C76.1938 279.5 76.2756 279.5 76.3575 279.5C76.4393 279.5 76.5211 279.5 76.6029 279.5C76.6848 279.5 76.7666 279.5 76.8485 279.5C76.9303 279.5 77.0122 279.5 77.0941 279.5C77.176 279.5 77.2578 279.5 77.3397 279.5C77.4216 279.5 77.5035 279.5 77.5855 279.5C77.6674 279.5 77.7493 279.5 77.8313 279.5C77.9132 279.5 77.9952 279.5 78.0771 279.5C78.1591 279.5 78.2411 279.5 78.3231 279.5C78.4051 279.5 78.4871 279.5 78.5691 279.5C78.6511 279.5 78.7332 279.5 78.8152 279.5C78.8973 279.5 78.9793 279.5 79.0614 279.5C79.1435 279.5 79.2256 279.5 79.3077 279.5C79.3898 279.5 79.4719 279.5 79.554 279.5C79.6361 279.5 79.7183 279.5 79.8004 279.5C79.8826 279.5 79.9648 279.5 80.0469 279.5C80.1291 279.5 80.2113 279.5 80.2936 279.5C80.3758 279.5 80.458 279.5 80.5403 279.5C80.6225 279.5 80.7048 279.5 80.7871 279.5C80.8693 279.5 80.9516 279.5 81.034 279.5C81.1163 279.5 81.1986 279.5 81.2809 279.5C81.3633 279.5 81.4457 279.5 81.528 279.5C81.6104 279.5 81.6928 279.5 81.7752 279.5C81.8577 279.5 81.9401 279.5 82.0225 279.5C82.105 279.5 82.1875 279.5 82.2699 279.5C82.3524 279.5 82.4349 279.5 82.5175 279.5C82.6 279.5 82.6825 279.5 82.7651 279.5C82.8477 279.5 82.9302 279.5 83.0128 279.5C83.0954 279.5 83.1781 279.5 83.2607 279.5C83.3433 279.5 83.426 279.5 83.5087 279.5C83.5913 279.5 83.674 279.5 83.7568 279.5C83.8395 279.5 83.9222 279.5 84.005 279.5C84.0877 279.5 84.1705 279.5 84.2533 279.5C84.3361 279.5 84.4189 279.5 84.5018 279.5C84.5846 279.5 84.6675 279.5 84.7504 279.5C84.8333 279.5 84.9162 279.5 84.9991 279.5C85.082 279.5 85.165 279.5 85.248 279.5C85.3309 279.5 85.4139 279.5 85.497 279.5C85.58 279.5 85.663 279.5 85.7461 279.5C85.8292 279.5 85.9123 279.5 85.9954 279.5C86.0785 279.5 86.1616 279.5 86.2448 279.5C86.3279 279.5 86.4111 279.5 86.4943 279.5C86.5775 279.5 86.6608 279.5 86.744 279.5C86.8273 279.5 86.9106 279.5 86.9939 279.5C87.0772 279.5 87.1605 279.5 87.2439 279.5C87.3272 279.5 87.4106 279.5 87.494 279.5C87.5774 279.5 87.6608 279.5 87.7443 279.5C87.8278 279.5 87.9112 279.5 87.9948 279.5C88.0783 279.5 88.1618 279.5 88.2454 279.5C88.3289 279.5 88.4125 279.5 88.4961 279.5C88.5798 279.5 88.6634 279.5 88.7471 279.5C88.8307 279.5 88.9144 279.5 88.9982 279.5C89.0819 279.5 89.1657 279.5 89.2494 279.5C89.3332 279.5 89.417 279.5 89.5009 279.5C89.5847 279.5 89.6686 279.5 89.7525 279.5C89.8364 279.5 89.9203 279.5 90.0042 279.5C90.0882 279.5 90.1722 279.5 90.2562 279.5C90.3402 279.5 90.4242 279.5 90.5083 279.5C90.5924 279.5 90.6765 279.5 90.7606 279.5C90.8447 279.5 90.9289 279.5 91.0131 279.5C91.0973 279.5 91.1815 279.5 91.2658 279.5C91.35 279.5 91.4343 279.5 91.5186 279.5C91.6029 279.5 91.6873 279.5 91.7717 279.5C91.856 279.5 91.9404 279.5 92.0249 279.5C92.1093 279.5 92.1938 279.5 92.2783 279.5C92.3628 279.5 92.4473 279.5 92.5319 279.5C92.6165 279.5 92.7011 279.5 92.7857 279.5C92.8704 279.5 92.955 279.5 93.0397 279.5C93.1244 279.5 93.2092 279.5 93.2939 279.5C93.3787 279.5 93.4635 279.5 93.5483 279.5C93.6332 279.5 93.718 279.5 93.803 279.5C93.8879 279.5 93.9728 279.5 94.0578 279.5C94.1427 279.5 94.2278 279.5 94.3128 279.5C94.3978 279.5 94.4829 279.5 94.568 279.5C94.6531 279.5 94.7383 279.5 94.8235 279.5C94.9087 279.5 94.9939 279.5 95.0791 279.5C95.1644 279.5 95.2497 279.5 95.335 279.5C95.4203 279.5 95.5057 279.5 95.5911 279.5C95.6765 279.5 95.762 279.5 95.8474 279.5C95.9329 279.5 96.0184 279.5 96.104 279.5C96.1895 279.5 96.2751 279.5 96.3607 279.5C96.4464 279.5 96.532 279.5 96.6177 279.5C96.7034 279.5 96.7892 279.5 96.8749 279.5C96.9607 279.5 97.0465 279.5 97.1324 279.5C97.2183 279.5 97.3041 279.5 97.3901 279.5C97.476 279.5 97.562 279.5 97.648 279.5C97.734 279.5 97.8201 279.5 97.9062 279.5C97.9923 279.5 98.0784 279.5 98.1646 279.5C98.2507 279.5 98.3369 279.5 98.4232 279.5C98.5095 279.5 98.5957 279.5 98.6821 279.5C98.7684 279.5 98.8548 279.5 98.9412 279.5C99.0276 279.5 99.1141 279.5 99.2006 279.5C99.2871 279.5 99.3736 279.5 99.4602 279.5C99.5468 279.5 99.6334 279.5 99.7201 279.5C99.8068 279.5 99.8935 279.5 99.9802 279.5C100.067 279.5 100.154 279.5 100.241 279.5C100.327 279.5 100.414 279.5 100.501 279.5C100.588 279.5 100.675 279.5 100.762 279.5C100.849 279.5 100.936 279.5 101.023 279.5C101.11 279.5 101.198 279.5 101.285 279.5C101.372 279.5 101.459 279.5 101.546 279.5C101.634 279.5 101.721 279.5 101.808 279.5C101.896 279.5 101.983 279.5 102.071 279.5C102.158 279.5 102.246 279.5 102.333 279.5C102.421 279.5 102.508 279.5 102.596 279.5C102.684 279.5 102.771 279.5 102.859 279.5C102.947 279.5 103.035 279.5 103.122 279.5C103.21 279.5 103.298 279.5 103.386 279.5C103.474 279.5 103.562 279.5 103.65 279.5C103.738 279.5 103.826 279.5 103.914 279.5C104.002 279.5 104.09 279.5 104.179 279.5C104.267 279.5 104.355 279.5 104.443 279.5C104.532 279.5 104.62 279.5 104.709 279.5C104.797 279.5 104.885 279.5 104.974 279.5C105.062 279.5 105.151 279.5 105.24 279.5C105.328 279.5 105.417 279.5 105.505 279.5C105.594 279.5 105.683 279.5 105.772 279.5C105.861 279.5 105.949 279.5 106.038 279.5C106.127 279.5 106.216 279.5 106.305 279.5C106.394 279.5 106.483 279.5 106.572 279.5C106.661 279.5 106.751 279.5 106.84 279.5C106.929 279.5 107.018 279.5 107.108 279.5C107.197 279.5 107.286 279.5 107.376 279.5C107.465 279.5 107.555 279.5 107.644 279.5C107.734 279.5 107.823 279.5 107.913 279.5C108.003 279.5 108.092 279.5 108.182 279.5C108.272 279.5 108.362 279.5 108.451 279.5C108.541 279.5 108.631 279.5 108.721 279.5C108.811 279.5 108.901 279.5 108.991 279.5C109.081 279.5 109.171 279.5 109.261 279.5C109.352 279.5 109.442 279.5 109.532 279.5C109.622 279.5 109.713 279.5 109.803 279.5C109.894 279.5 109.984 279.5 110.075 279.5C110.165 279.5 110.256 279.5 110.346 279.5C110.437 279.5 110.527 279.5 110.618 279.5C110.709 279.5 110.8 279.5 110.891 279.5C110.981 279.5 111.072 279.5 111.163 279.5C111.254 279.5 111.345 279.5 111.436 279.5C111.527 279.5 111.619 279.5 111.71 279.5C111.801 279.5 111.892 279.5 111.984 279.5C112.075 279.5 112.166 279.5 112.258 279.5C112.349 279.5 112.441 279.5 112.532 279.5C112.624 279.5 112.715 279.5 112.807 279.5C112.899 279.5 112.99 279.5 113.082 279.5C113.174 279.5 113.266 279.5 113.358 279.5C113.449 279.5 113.541 279.5 113.633 279.5C113.725 279.5 113.818 279.5 113.91 279.5C114.002 279.5 114.094 279.5 114.186 279.5C114.279 279.5 114.371 279.5 114.463 279.5C114.556 279.5 114.648 279.5 114.741 279.5C114.833 279.5 114.926 279.5 115.018 279.5C115.111 279.5 115.204 279.5 115.297 279.5C115.389 279.5 115.482 279.5 115.575 279.5C115.668 279.5 115.761 279.5 115.854 279.5C115.947 279.5 116.04 279.5 116.133 279.5C116.226 279.5 116.319 279.5 116.413 279.5C116.506 279.5 116.599 279.5 116.693 279.5C116.786 279.5 116.88 279.5 116.973 279.5C117.067 279.5 117.16 279.5 117.254 279.5C117.348 279.5 117.441 279.5 117.535 279.5C117.629 279.5 117.723 279.5 117.817 279.5C117.911 279.5 118.005 279.5 118.099 279.5C118.193 279.5 118.287 279.5 118.381 279.5C118.475 279.5 118.569 279.5 118.664 279.5C118.758 279.5 118.852 279.5 118.947 279.5C119.041 279.5 119.136 279.5 119.23 279.5C119.325 279.5 119.42 279.5 119.514 279.5C119.609 279.5 119.704 279.5 119.799 279.5C119.894 279.5 119.989 279.5 120.084 279.5C120.179 279.5 120.274 279.5 120.369 279.5C120.464 279.5 120.559 279.5 120.654 279.5C120.75 279.5 120.845 279.5 120.94 279.5C121.036 279.5 121.131 279.5 121.227 279.5C121.322 279.5 121.418 279.5 121.514 279.5C121.609 279.5 121.705 279.5 121.801 279.5C121.897 279.5 121.993 279.5 122.089 279.5C122.185 279.5 122.281 279.5 122.377 279.5C122.473 279.5 122.569 279.5 122.665 279.5C122.762 279.5 122.858 279.5 122.954 279.5C123.051 279.5 123.147 279.5 123.244 279.5C123.34 279.5 123.437 279.5 123.534 279.5C123.63 279.5 123.727 279.5 123.824 279.5C123.921 279.5 124.018 279.5 124.115 279.5C124.212 279.5 124.309 279.5 124.406 279.5C124.503 279.5 124.6 279.5 124.698 279.5C124.795 279.5 124.892 279.5 124.99 279.5C125.087 279.5 125.185 279.5 125.282 279.5C125.38 279.5 125.477 279.5 125.575 279.5C125.673 279.5 125.771 279.5 125.869 279.5C125.966 279.5 126.064 279.5 126.162 279.5C126.26 279.5 126.359 279.5 126.457 279.5C126.555 279.5 126.653 279.5 126.751 279.5C126.85 279.5 126.948 279.5 127.047 279.5C127.145 279.5 127.244 279.5 127.342 279.5C127.441 279.5 127.54 279.5 127.639 279.5C127.737 279.5 127.836 279.5 127.935 279.5C128.034 279.5 128.133 279.5 128.232 279.5C128.332 279.5 128.431 279.5 128.53 279.5C128.629 279.5 128.729 279.5 128.828 279.5C128.927 279.5 129.027 279.5 129.127 279.5C129.226 279.5 129.326 279.5 129.426 279.5C129.525 279.5 129.625 279.5 129.725 279.5C129.825 279.5 129.925 279.5 130.025 279.5C130.125 279.5 130.225 279.5 130.325 279.5C130.426 279.5 130.526 279.5 130.626 279.5C130.727 279.5 130.827 279.5 130.928 279.5C131.028 279.5 131.129 279.5 131.23 279.5C131.33 279.5 131.431 279.5 131.532 279.5C131.633 279.5 131.734 279.5 131.835 279.5C131.936 279.5 132.037 279.5 132.138 279.5C132.24 279.5 132.341 279.5 132.442 279.5C132.544 279.5 132.645 279.5 132.747 279.5C132.848 279.5 132.95 279.5 133.052 279.5C133.153 279.5 133.255 279.5 133.357 279.5C133.459 279.5 133.561 279.5 133.663 279.5C133.765 279.5 133.867 279.5 133.969 279.5C134.072 279.5 134.174 279.5 134.276 279.5C134.379 279.5 134.481 279.5 134.584 279.5C134.686 279.5 134.789 279.5 134.892 279.5C134.994 279.5 135.097 279.5 135.2 279.5C135.303 279.5 135.406 279.5 135.509 279.5C135.612 279.5 135.715 279.5 135.819 279.5C135.922 279.5 136.025 279.5 136.129 279.5C136.232 279.5 136.336 279.5 136.439 279.5C136.543 279.5 136.647 279.5 136.75 279.5C136.854 279.5 136.958 279.5 137.062 279.5C137.166 279.5 137.27 279.5 137.374 279.5C137.478 279.5 137.582 279.5 137.687 279.5C137.791 279.5 137.896 279.5 138 279.5V278.5C137.896 278.5 137.791 278.5 137.687 278.5C137.582 278.5 137.478 278.5 137.374 278.5C137.27 278.5 137.166 278.5 137.062 278.5C136.958 278.5 136.854 278.5 136.75 278.5C136.647 278.5 136.543 278.5 136.439 278.5C136.336 278.5 136.232 278.5 136.129 278.5C136.025 278.5 135.922 278.5 135.819 278.5C135.715 278.5 135.612 278.5 135.509 278.5C135.406 278.5 135.303 278.5 135.2 278.5C135.097 278.5 134.994 278.5 134.892 278.5C134.789 278.5 134.686 278.5 134.584 278.5C134.481 278.5 134.379 278.5 134.276 278.5C134.174 278.5 134.072 278.5 133.969 278.5C133.867 278.5 133.765 278.5 133.663 278.5C133.561 278.5 133.459 278.5 133.357 278.5C133.255 278.5 133.153 278.5 133.052 278.5C132.95 278.5 132.848 278.5 132.747 278.5C132.645 278.5 132.544 278.5 132.442 278.5C132.341 278.5 132.24 278.5 132.138 278.5C132.037 278.5 131.936 278.5 131.835 278.5C131.734 278.5 131.633 278.5 131.532 278.5C131.431 278.5 131.33 278.5 131.23 278.5C131.129 278.5 131.028 278.5 130.928 278.5C130.827 278.5 130.727 278.5 130.626 278.5C130.526 278.5 130.426 278.5 130.325 278.5C130.225 278.5 130.125 278.5 130.025 278.5C129.925 278.5 129.825 278.5 129.725 278.5C129.625 278.5 129.525 278.5 129.426 278.5C129.326 278.5 129.226 278.5 129.127 278.5C129.027 278.5 128.927 278.5 128.828 278.5C128.729 278.5 128.629 278.5 128.53 278.5C128.431 278.5 128.332 278.5 128.232 278.5C128.133 278.5 128.034 278.5 127.935 278.5C127.836 278.5 127.737 278.5 127.639 278.5C127.54 278.5 127.441 278.5 127.342 278.5C127.244 278.5 127.145 278.5 127.047 278.5C126.948 278.5 126.85 278.5 126.751 278.5C126.653 278.5 126.555 278.5 126.457 278.5C126.359 278.5 126.26 278.5 126.162 278.5C126.064 278.5 125.966 278.5 125.869 278.5C125.771 278.5 125.673 278.5 125.575 278.5C125.477 278.5 125.38 278.5 125.282 278.5C125.185 278.5 125.087 278.5 124.99 278.5C124.892 278.5 124.795 278.5 124.698 278.5C124.6 278.5 124.503 278.5 124.406 278.5C124.309 278.5 124.212 278.5 124.115 278.5C124.018 278.5 123.921 278.5 123.824 278.5C123.727 278.5 123.63 278.5 123.534 278.5C123.437 278.5 123.34 278.5 123.244 278.5C123.147 278.5 123.051 278.5 122.954 278.5C122.858 278.5 122.762 278.5 122.665 278.5C122.569 278.5 122.473 278.5 122.377 278.5C122.281 278.5 122.185 278.5 122.089 278.5C121.993 278.5 121.897 278.5 121.801 278.5C121.705 278.5 121.609 278.5 121.514 278.5C121.418 278.5 121.322 278.5 121.227 278.5C121.131 278.5 121.036 278.5 120.94 278.5C120.845 278.5 120.75 278.5 120.654 278.5C120.559 278.5 120.464 278.5 120.369 278.5C120.274 278.5 120.179 278.5 120.084 278.5C119.989 278.5 119.894 278.5 119.799 278.5C119.704 278.5 119.609 278.5 119.514 278.5C119.42 278.5 119.325 278.5 119.23 278.5C119.136 278.5 119.041 278.5 118.947 278.5C118.852 278.5 118.758 278.5 118.664 278.5C118.569 278.5 118.475 278.5 118.381 278.5C118.287 278.5 118.193 278.5 118.099 278.5C118.005 278.5 117.911 278.5 117.817 278.5C117.723 278.5 117.629 278.5 117.535 278.5C117.441 278.5 117.348 278.5 117.254 278.5C117.16 278.5 117.067 278.5 116.973 278.5C116.88 278.5 116.786 278.5 116.693 278.5C116.599 278.5 116.506 278.5 116.413 278.5C116.319 278.5 116.226 278.5 116.133 278.5C116.04 278.5 115.947 278.5 115.854 278.5C115.761 278.5 115.668 278.5 115.575 278.5C115.482 278.5 115.389 278.5 115.297 278.5C115.204 278.5 115.111 278.5 115.018 278.5C114.926 278.5 114.833 278.5 114.741 278.5C114.648 278.5 114.556 278.5 114.463 278.5C114.371 278.5 114.279 278.5 114.186 278.5C114.094 278.5 114.002 278.5 113.91 278.5C113.818 278.5 113.725 278.5 113.633 278.5C113.541 278.5 113.449 278.5 113.358 278.5C113.266 278.5 113.174 278.5 113.082 278.5C112.99 278.5 112.899 278.5 112.807 278.5C112.715 278.5 112.624 278.5 112.532 278.5C112.441 278.5 112.349 278.5 112.258 278.5C112.166 278.5 112.075 278.5 111.984 278.5C111.892 278.5 111.801 278.5 111.71 278.5C111.619 278.5 111.527 278.5 111.436 278.5C111.345 278.5 111.254 278.5 111.163 278.5C111.072 278.5 110.981 278.5 110.891 278.5C110.8 278.5 110.709 278.5 110.618 278.5C110.527 278.5 110.437 278.5 110.346 278.5C110.256 278.5 110.165 278.5 110.075 278.5C109.984 278.5 109.894 278.5 109.803 278.5C109.713 278.5 109.622 278.5 109.532 278.5C109.442 278.5 109.352 278.5 109.261 278.5C109.171 278.5 109.081 278.5 108.991 278.5C108.901 278.5 108.811 278.5 108.721 278.5C108.631 278.5 108.541 278.5 108.451 278.5C108.362 278.5 108.272 278.5 108.182 278.5C108.092 278.5 108.003 278.5 107.913 278.5C107.823 278.5 107.734 278.5 107.644 278.5C107.555 278.5 107.465 278.5 107.376 278.5C107.286 278.5 107.197 278.5 107.108 278.5C107.018 278.5 106.929 278.5 106.84 278.5C106.751 278.5 106.661 278.5 106.572 278.5C106.483 278.5 106.394 278.5 106.305 278.5C106.216 278.5 106.127 278.5 106.038 278.5C105.949 278.5 105.861 278.5 105.772 278.5C105.683 278.5 105.594 278.5 105.505 278.5C105.417 278.5 105.328 278.5 105.24 278.5C105.151 278.5 105.062 278.5 104.974 278.5C104.885 278.5 104.797 278.5 104.709 278.5C104.62 278.5 104.532 278.5 104.443 278.5C104.355 278.5 104.267 278.5 104.179 278.5C104.09 278.5 104.002 278.5 103.914 278.5C103.826 278.5 103.738 278.5 103.65 278.5C103.562 278.5 103.474 278.5 103.386 278.5C103.298 278.5 103.21 278.5 103.122 278.5C103.035 278.5 102.947 278.5 102.859 278.5C102.771 278.5 102.684 278.5 102.596 278.5C102.508 278.5 102.421 278.5 102.333 278.5C102.246 278.5 102.158 278.5 102.071 278.5C101.983 278.5 101.896 278.5 101.808 278.5C101.721 278.5 101.634 278.5 101.546 278.5C101.459 278.5 101.372 278.5 101.285 278.5C101.198 278.5 101.11 278.5 101.023 278.5C100.936 278.5 100.849 278.5 100.762 278.5C100.675 278.5 100.588 278.5 100.501 278.5C100.414 278.5 100.327 278.5 100.241 278.5C100.154 278.5 100.067 278.5 99.9802 278.5C99.8935 278.5 99.8068 278.5 99.7201 278.5C99.6334 278.5 99.5468 278.5 99.4602 278.5C99.3736 278.5 99.2871 278.5 99.2006 278.5C99.1141 278.5 99.0276 278.5 98.9412 278.5C98.8548 278.5 98.7684 278.5 98.6821 278.5C98.5957 278.5 98.5095 278.5 98.4232 278.5C98.3369 278.5 98.2507 278.5 98.1646 278.5C98.0784 278.5 97.9923 278.5 97.9062 278.5C97.8201 278.5 97.734 278.5 97.648 278.5C97.562 278.5 97.476 278.5 97.3901 278.5C97.3041 278.5 97.2183 278.5 97.1324 278.5C97.0465 278.5 96.9607 278.5 96.8749 278.5C96.7892 278.5 96.7034 278.5 96.6177 278.5C96.532 278.5 96.4464 278.5 96.3607 278.5C96.2751 278.5 96.1895 278.5 96.104 278.5C96.0184 278.5 95.9329 278.5 95.8474 278.5C95.762 278.5 95.6765 278.5 95.5911 278.5C95.5057 278.5 95.4203 278.5 95.335 278.5C95.2497 278.5 95.1644 278.5 95.0791 278.5C94.9939 278.5 94.9087 278.5 94.8235 278.5C94.7383 278.5 94.6531 278.5 94.568 278.5C94.4829 278.5 94.3978 278.5 94.3128 278.5C94.2278 278.5 94.1427 278.5 94.0578 278.5C93.9728 278.5 93.8879 278.5 93.803 278.5C93.718 278.5 93.6332 278.5 93.5483 278.5C93.4635 278.5 93.3787 278.5 93.2939 278.5C93.2092 278.5 93.1244 278.5 93.0397 278.5C92.955 278.5 92.8704 278.5 92.7857 278.5C92.7011 278.5 92.6165 278.5 92.5319 278.5C92.4473 278.5 92.3628 278.5 92.2783 278.5C92.1938 278.5 92.1093 278.5 92.0249 278.5C91.9404 278.5 91.856 278.5 91.7717 278.5C91.6873 278.5 91.6029 278.5 91.5186 278.5C91.4343 278.5 91.35 278.5 91.2658 278.5C91.1815 278.5 91.0973 278.5 91.0131 278.5C90.9289 278.5 90.8447 278.5 90.7606 278.5C90.6765 278.5 90.5924 278.5 90.5083 278.5C90.4242 278.5 90.3402 278.5 90.2562 278.5C90.1722 278.5 90.0882 278.5 90.0042 278.5C89.9203 278.5 89.8364 278.5 89.7525 278.5C89.6686 278.5 89.5847 278.5 89.5009 278.5C89.417 278.5 89.3332 278.5 89.2494 278.5C89.1657 278.5 89.0819 278.5 88.9982 278.5C88.9144 278.5 88.8307 278.5 88.7471 278.5C88.6634 278.5 88.5798 278.5 88.4961 278.5C88.4125 278.5 88.3289 278.5 88.2454 278.5C88.1618 278.5 88.0783 278.5 87.9948 278.5C87.9112 278.5 87.8278 278.5 87.7443 278.5C87.6608 278.5 87.5774 278.5 87.494 278.5C87.4106 278.5 87.3272 278.5 87.2439 278.5C87.1605 278.5 87.0772 278.5 86.9939 278.5C86.9106 278.5 86.8273 278.5 86.744 278.5C86.6608 278.5 86.5775 278.5 86.4943 278.5C86.4111 278.5 86.3279 278.5 86.2448 278.5C86.1616 278.5 86.0785 278.5 85.9954 278.5C85.9123 278.5 85.8292 278.5 85.7461 278.5C85.663 278.5 85.58 278.5 85.497 278.5C85.4139 278.5 85.3309 278.5 85.248 278.5C85.165 278.5 85.082 278.5 84.9991 278.5C84.9162 278.5 84.8333 278.5 84.7504 278.5C84.6675 278.5 84.5846 278.5 84.5018 278.5C84.4189 278.5 84.3361 278.5 84.2533 278.5C84.1705 278.5 84.0877 278.5 84.005 278.5C83.9222 278.5 83.8395 278.5 83.7568 278.5C83.674 278.5 83.5913 278.5 83.5087 278.5C83.426 278.5 83.3433 278.5 83.2607 278.5C83.1781 278.5 83.0954 278.5 83.0128 278.5C82.9302 278.5 82.8477 278.5 82.7651 278.5C82.6825 278.5 82.6 278.5 82.5175 278.5C82.4349 278.5 82.3524 278.5 82.2699 278.5C82.1875 278.5 82.105 278.5 82.0225 278.5C81.9401 278.5 81.8577 278.5 81.7752 278.5C81.6928 278.5 81.6104 278.5 81.528 278.5C81.4457 278.5 81.3633 278.5 81.2809 278.5C81.1986 278.5 81.1163 278.5 81.034 278.5C80.9516 278.5 80.8693 278.5 80.7871 278.5C80.7048 278.5 80.6225 278.5 80.5403 278.5C80.458 278.5 80.3758 278.5 80.2936 278.5C80.2113 278.5 80.1291 278.5 80.0469 278.5C79.9648 278.5 79.8826 278.5 79.8004 278.5C79.7183 278.5 79.6361 278.5 79.554 278.5C79.4719 278.5 79.3898 278.5 79.3077 278.5C79.2256 278.5 79.1435 278.5 79.0614 278.5C78.9793 278.5 78.8973 278.5 78.8152 278.5C78.7332 278.5 78.6511 278.5 78.5691 278.5C78.4871 278.5 78.4051 278.5 78.3231 278.5C78.2411 278.5 78.1591 278.5 78.0771 278.5C77.9952 278.5 77.9132 278.5 77.8313 278.5C77.7493 278.5 77.6674 278.5 77.5855 278.5C77.5035 278.5 77.4216 278.5 77.3397 278.5C77.2578 278.5 77.176 278.5 77.0941 278.5C77.0122 278.5 76.9303 278.5 76.8485 278.5C76.7666 278.5 76.6848 278.5 76.6029 278.5C76.5211 278.5 76.4393 278.5 76.3575 278.5C76.2756 278.5 76.1938 278.5 76.112 278.5C76.0303 278.5 75.9485 278.5 75.8667 278.5C75.7849 278.5 75.7031 278.5 75.6214 278.5C75.5396 278.5 75.4579 278.5 75.3761 278.5C75.2944 278.5 75.2127 278.5 75.1309 278.5C75.0492 278.5 74.9675 278.5 74.8858 278.5C74.8041 278.5 74.7224 278.5 74.6407 278.5C74.559 278.5 74.4773 278.5 74.3956 278.5C74.3139 278.5 74.2322 278.5 74.1506 278.5C74.0689 278.5 73.9873 278.5 73.9056 278.5C73.8239 278.5 73.7423 278.5 73.6607 278.5C73.579 278.5 73.4974 278.5 73.4157 278.5C73.3341 278.5 73.2525 278.5 73.1709 278.5C73.0893 278.5 73.0076 278.5 72.926 278.5C72.8444 278.5 72.7628 278.5 72.6812 278.5C72.5996 278.5 72.518 278.5 72.4364 278.5C72.3548 278.5 72.2733 278.5 72.1917 278.5C72.1101 278.5 72.0285 278.5 71.9469 278.5C71.8654 278.5 71.7838 278.5 71.7022 278.5C71.6206 278.5 71.5391 278.5 71.4575 278.5C71.376 278.5 71.2944 278.5 71.2128 278.5C71.1313 278.5 71.0497 278.5 70.9682 278.5C70.8866 278.5 70.8051 278.5 70.7235 278.5C70.642 278.5 70.5604 278.5 70.4789 278.5C70.3973 278.5 70.3158 278.5 70.2342 278.5C70.1527 278.5 70.0712 278.5 69.9896 278.5C69.9081 278.5 69.8265 278.5 69.745 278.5C69.6634 278.5 69.5819 278.5 69.5004 278.5C69.4188 278.5 69.3373 278.5 69.2557 278.5C69.1742 278.5 69.0927 278.5 69.0111 278.5C68.9296 278.5 68.848 278.5 68.7665 278.5C68.6849 278.5 68.6034 278.5 68.5219 278.5C68.4403 278.5 68.3588 278.5 68.2772 278.5C68.1957 278.5 68.1141 278.5 68.0326 278.5C67.951 278.5 67.8694 278.5 67.7879 278.5C67.7063 278.5 67.6248 278.5 67.5432 278.5C67.4616 278.5 67.3801 278.5 67.2985 278.5C67.2169 278.5 67.1354 278.5 67.0538 278.5C66.9722 278.5 66.8906 278.5 66.8091 278.5C66.7275 278.5 66.6459 278.5 66.5643 278.5C66.4827 278.5 66.4011 278.5 66.3195 278.5C66.2379 278.5 66.1563 278.5 66.0747 278.5C65.9931 278.5 65.9115 278.5 65.8298 278.5C65.7482 278.5 65.6666 278.5 65.585 278.5C65.5033 278.5 65.4217 278.5 65.3401 278.5C65.2584 278.5 65.1768 278.5 65.0951 278.5C65.0135 278.5 64.9318 278.5 64.8501 278.5C64.7685 278.5 64.6868 278.5 64.6051 278.5C64.5234 278.5 64.4417 278.5 64.3601 278.5C64.2784 278.5 64.1967 278.5 64.1149 278.5C64.0332 278.5 63.9515 278.5 63.8698 278.5C63.7881 278.5 63.7063 278.5 63.6246 278.5C63.5428 278.5 63.4611 278.5 63.3793 278.5C63.2976 278.5 63.2158 278.5 63.134 278.5C63.0523 278.5 62.9705 278.5 62.8887 278.5C62.8069 278.5 62.7251 278.5 62.6433 278.5C62.5614 278.5 62.4796 278.5 62.3978 278.5C62.3159 278.5 62.2341 278.5 62.1522 278.5C62.0704 278.5 61.9885 278.5 61.9066 278.5C61.8248 278.5 61.7429 278.5 61.661 278.5C61.5791 278.5 61.4972 278.5 61.4152 278.5C61.3333 278.5 61.2514 278.5 61.1694 278.5C61.0875 278.5 61.0055 278.5 60.9236 278.5C60.8416 278.5 60.7596 278.5 60.6776 278.5C60.5956 278.5 60.5136 278.5 60.4316 278.5C60.3496 278.5 60.2675 278.5 60.1855 278.5C60.1034 278.5 60.0214 278.5 59.9393 278.5C59.8572 278.5 59.7752 278.5 59.6931 278.5C59.611 278.5 59.5288 278.5 59.4467 278.5C59.3646 278.5 59.2824 278.5 59.2003 278.5C59.1181 278.5 59.0359 278.5 58.9538 278.5C58.8716 278.5 58.7894 278.5 58.7071 278.5C58.6249 278.5 58.5427 278.5 58.4604 278.5C58.3782 278.5 58.2959 278.5 58.2136 278.5C58.1314 278.5 58.0491 278.5 57.9667 278.5C57.8844 278.5 57.8021 278.5 57.7198 278.5C57.6374 278.5 57.555 278.5 57.4727 278.5C57.3903 278.5 57.3079 278.5 57.2255 278.5C57.143 278.5 57.0606 278.5 56.9782 278.5C56.8957 278.5 56.8132 278.5 56.7307 278.5C56.6483 278.5 56.5658 278.5 56.4832 278.5C56.4007 278.5 56.3182 278.5 56.2356 278.5C56.153 278.5 56.0705 278.5 55.9879 278.5C55.9053 278.5 55.8226 278.5 55.74 278.5C55.6574 278.5 55.5747 278.5 55.492 278.5C55.4093 278.5 55.3266 278.5 55.2439 278.5C55.1612 278.5 55.0785 278.5 54.9957 278.5C54.9129 278.5 54.8302 278.5 54.7474 278.5C54.6646 278.5 54.5817 278.5 54.4989 278.5C54.416 278.5 54.3332 278.5 54.2503 278.5C54.1674 278.5 54.0845 278.5 54.0016 278.5C53.9186 278.5 53.8357 278.5 53.7527 278.5C53.6697 278.5 53.5867 278.5 53.5037 278.5C53.4207 278.5 53.3376 278.5 53.2546 278.5C53.1715 278.5 53.0884 278.5 53.0053 278.5C52.9222 278.5 52.8391 278.5 52.7559 278.5C52.6727 278.5 52.5896 278.5 52.5063 278.5C52.4231 278.5 52.3399 278.5 52.2566 278.5C52.1734 278.5 52.0901 278.5 52.0068 278.5C51.9235 278.5 51.8402 278.5 51.7568 278.5C51.6734 278.5 51.5901 278.5 51.5067 278.5C51.4232 278.5 51.3398 278.5 51.2564 278.5C51.1729 278.5 51.0894 278.5 51.0059 278.5C50.9224 278.5 50.8389 278.5 50.7553 278.5C50.6717 278.5 50.5881 278.5 50.5045 278.5C50.4209 278.5 50.3373 278.5 50.2536 278.5C50.1699 278.5 50.0862 278.5 50.0025 278.5C49.9188 278.5 49.835 278.5 49.7512 278.5C49.6674 278.5 49.5836 278.5 49.4998 278.5C49.4159 278.5 49.3321 278.5 49.2482 278.5C49.1643 278.5 49.0804 278.5 48.9964 278.5C48.9125 278.5 48.8285 278.5 48.7445 278.5C48.6604 278.5 48.5764 278.5 48.4923 278.5C48.4083 278.5 48.3242 278.5 48.24 278.5C48.1559 278.5 48.0717 278.5 47.9875 278.5C47.9033 278.5 47.8191 278.5 47.7349 278.5C47.6506 278.5 47.5663 278.5 47.482 278.5C47.3977 278.5 47.3134 278.5 47.229 278.5C47.1446 278.5 47.0602 278.5 46.9757 278.5C46.8913 278.5 46.8068 278.5 46.7223 278.5C46.6378 278.5 46.5533 278.5 46.4687 278.5C46.3841 278.5 46.2995 278.5 46.2149 278.5C46.1303 278.5 46.0456 278.5 45.9609 278.5C45.8762 278.5 45.7915 278.5 45.7067 278.5C45.6219 278.5 45.5371 278.5 45.4523 278.5C45.3674 278.5 45.2826 278.5 45.1977 278.5C45.1128 278.5 45.0278 278.5 44.9428 278.5C44.8579 278.5 44.7729 278.5 44.6878 278.5C44.6028 278.5 44.5177 278.5 44.4326 278.5C44.3475 278.5 44.2623 278.5 44.1771 278.5C44.0919 278.5 44.0067 278.5 43.9215 278.5C43.8362 278.5 43.7509 278.5 43.6656 278.5C43.5803 278.5 43.4949 278.5 43.4095 278.5C43.3241 278.5 43.2386 278.5 43.1532 278.5C43.0677 278.5 42.9822 278.5 42.8966 278.5C42.8111 278.5 42.7255 278.5 42.6399 278.5C42.5542 278.5 42.4686 278.5 42.3829 278.5C42.2972 278.5 42.2114 278.5 42.1256 278.5C42.0399 278.5 41.954 278.5 41.8682 278.5C41.7823 278.5 41.6964 278.5 41.6105 278.5C41.5246 278.5 41.4386 278.5 41.3526 278.5C41.2666 278.5 41.1805 278.5 41.0944 278.5C41.0083 278.5 40.9222 278.5 40.836 278.5C40.7498 278.5 40.6636 278.5 40.5774 278.5C40.4911 278.5 40.4048 278.5 40.3185 278.5C40.2322 278.5 40.1458 278.5 40.0594 278.5C39.9729 278.5 39.8865 278.5 39.8 278.5C39.7135 278.5 39.6269 278.5 39.5403 278.5C39.4538 278.5 39.3671 278.5 39.2805 278.5C39.1938 278.5 39.1071 278.5 39.0203 278.5C38.9336 278.5 38.8468 278.5 38.7599 278.5C38.6731 278.5 38.5862 278.5 38.4993 278.5C38.4124 278.5 38.3254 278.5 38.2384 278.5C38.1514 278.5 38.0643 278.5 37.9772 278.5C37.8901 278.5 37.803 278.5 37.7158 278.5C37.6286 278.5 37.5413 278.5 37.4541 278.5C37.3668 278.5 37.2794 278.5 37.1921 278.5C37.1047 278.5 37.0173 278.5 36.9298 278.5C36.8424 278.5 36.7549 278.5 36.6673 278.5C36.5798 278.5 36.4922 278.5 36.4045 278.5C36.3169 278.5 36.2292 278.5 36.1414 278.5C36.0537 278.5 35.9659 278.5 35.8781 278.5C35.7903 278.5 35.7024 278.5 35.6145 278.5C35.5265 278.5 35.4386 278.5 35.3505 278.5C35.2625 278.5 35.1745 278.5 35.0863 278.5C34.9982 278.5 34.9101 278.5 34.8218 278.5C34.7336 278.5 34.6454 278.5 34.5571 278.5C34.4688 278.5 34.3804 278.5 34.292 278.5C34.2036 278.5 34.1151 278.5 34.0266 278.5C33.9381 278.5 33.8496 278.5 33.761 278.5C33.6724 278.5 33.5837 278.5 33.495 278.5C33.4063 278.5 33.3175 278.5 33.2287 278.5C33.1399 278.5 33.0511 278.5 32.9622 278.5C32.8733 278.5 32.7843 278.5 32.6953 278.5C32.6063 278.5 32.5172 278.5 32.4281 278.5C32.339 278.5 32.2499 278.5 32.1606 278.5C32.0714 278.5 31.9822 278.5 31.8928 278.5C31.8035 278.5 31.7142 278.5 31.6247 278.5C31.5353 278.5 31.4458 278.5 31.3563 278.5C31.2668 278.5 31.1772 278.5 31.0876 278.5C30.9979 278.5 30.9082 278.5 30.8185 278.5C30.7288 278.5 30.639 278.5 30.5491 278.5C30.4593 278.5 30.3694 278.5 30.2794 278.5C30.1894 278.5 30.0994 278.5 30.0094 278.5C29.9193 278.5 29.8292 278.5 29.739 278.5C29.6488 278.5 29.5586 278.5 29.4683 278.5C29.378 278.5 29.2877 278.5 29.1973 278.5C29.1069 278.5 29.0164 278.5 28.9259 278.5C28.8354 278.5 28.7449 278.5 28.6542 278.5C28.5636 278.5 28.4729 278.5 28.3822 278.5C28.2915 278.5 28.2007 278.5 28.1098 278.5C28.019 278.5 27.9281 278.5 27.8371 278.5C27.7462 278.5 27.6551 278.5 27.5641 278.5C27.473 278.5 27.3818 278.5 27.2907 278.5C27.1995 278.5 27.1082 278.5 27.0169 278.5C26.9256 278.5 26.8342 278.5 26.7428 278.5C26.6514 278.5 26.5599 278.5 26.4683 278.5C26.3768 278.5 26.2852 278.5 26.1935 278.5C26.1019 278.5 26.0101 278.5 25.9183 278.5C25.8266 278.5 25.7347 278.5 25.6428 278.5C25.5509 278.5 25.4589 278.5 25.3669 278.5C25.2749 278.5 25.1828 278.5 25.0907 278.5C24.9985 278.5 24.9063 278.5 24.814 278.5C24.7218 278.5 24.6294 278.5 24.5371 278.5C24.4447 278.5 24.3522 278.5 24.2597 278.5C24.1672 278.5 24.0746 278.5 23.982 278.5C23.8893 278.5 23.7966 278.5 23.7039 278.5C23.6111 278.5 23.5183 278.5 23.4254 278.5C23.3325 278.5 23.2395 278.5 23.1465 278.5C23.0535 278.5 22.9604 278.5 22.8673 278.5C22.7741 278.5 22.6809 278.5 22.5876 278.5C22.4944 278.5 22.401 278.5 22.3076 278.5C22.2142 278.5 22.1208 278.5 22.0272 278.5C21.9337 278.5 21.8401 278.5 21.7465 278.5C21.6528 278.5 21.5591 278.5 21.4653 278.5C21.3715 278.5 21.2776 278.5 21.1837 278.5C21.0898 278.5 20.9958 278.5 20.9017 278.5C20.8077 278.5 20.7136 278.5 20.6194 278.5C20.5252 278.5 20.4309 278.5 20.3366 278.5C20.2423 278.5 20.1479 278.5 20.0535 278.5C19.959 278.5 19.8645 278.5 19.7699 278.5C19.6753 278.5 19.5807 278.5 19.4859 278.5C19.3912 278.5 19.2964 278.5 19.2016 278.5C19.1067 278.5 19.0118 278.5 18.9168 278.5C18.8218 278.5 18.7267 278.5 18.6316 278.5C18.5364 278.5 18.4412 278.5 18.346 278.5C18.2507 278.5 18.1553 278.5 18.0599 278.5C17.9645 278.5 17.869 278.5 17.7735 278.5C17.6779 278.5 17.5823 278.5 17.4866 278.5C17.3909 278.5 17.2952 278.5 17.1993 278.5C17.1035 278.5 17.0076 278.5 16.9116 278.5C16.8156 278.5 16.7196 278.5 16.6235 278.5C16.5273 278.5 16.4311 278.5 16.3349 278.5C16.2386 278.5 16.1423 278.5 16.0459 278.5C15.9495 278.5 15.853 278.5 15.7565 278.5C15.6599 278.5 15.5633 278.5 15.4666 278.5C15.3699 278.5 15.2731 278.5 15.1763 278.5C15.0794 278.5 14.9825 278.5 14.8855 278.5C14.7885 278.5 14.6915 278.5 14.5943 278.5C14.4972 278.5 14.4 278.5 14.3027 278.5C14.2054 278.5 14.1081 278.5 14.0106 278.5C13.9132 278.5 13.8157 278.5 13.7181 278.5C13.6205 278.5 13.5229 278.5 13.4251 278.5C13.3274 278.5 13.2296 278.5 13.1317 278.5C13.0338 278.5 12.9359 278.5 12.8378 278.5C12.7398 278.5 12.6417 278.5 12.5435 278.5C12.4453 278.5 12.347 278.5 12.2487 278.5C12.1504 278.5 12.0519 278.5 11.9534 278.5C11.8549 278.5 11.7564 278.5 11.6577 278.5C11.5591 278.5 11.4603 278.5 11.3615 278.5C11.2627 278.5 11.1639 278.5 11.0649 278.5C10.9659 278.5 10.8669 278.5 10.7678 278.5C10.6687 278.5 10.5695 278.5 10.4702 278.5C10.3709 278.5 10.2716 278.5 10.1721 278.5C10.0727 278.5 9.97319 278.5 9.8736 278.5C9.774 278.5 9.67433 278.5 9.57458 278.5C9.47483 278.5 9.375 278.5 9.27509 278.5C9.17518 278.5 9.07519 278.5 8.97512 278.5C8.87505 278.5 8.77489 278.5 8.67466 278.5C8.57443 278.5 8.47412 278.5 8.37372 278.5C8.27332 278.5 8.17285 278.5 8.07229 278.5C7.97173 278.5 7.87109 278.5 7.77037 278.5C7.66965 278.5 7.56885 278.5 7.46796 278.5C7.36707 278.5 7.26611 278.5 7.16506 278.5C7.064 278.5 6.96287 278.5 6.86165 278.5C6.76044 278.5 6.65914 278.5 6.55776 278.5C6.45637 278.5 6.35491 278.5 6.25336 278.5C6.15181 278.5 6.05017 278.5 5.94845 278.5C5.84674 278.5 5.74494 278.5 5.64305 278.5C5.54116 278.5 5.43919 278.5 5.33714 278.5C5.23508 278.5 5.13294 278.5 5.03072 278.5C4.92849 278.5 4.82618 278.5 4.72378 278.5C4.62139 278.5 4.51891 278.5 4.41634 278.5C4.31377 278.5 4.21112 278.5 4.10838 278.5C4.00564 278.5 3.90281 278.5 3.7999 278.5C3.69699 278.5 3.59399 278.5 3.49091 278.5C3.38782 278.5 3.28465 278.5 3.18139 278.5C3.07813 278.5 2.97478 278.5 2.87135 278.5C2.76792 278.5 2.66439 278.5 2.56078 278.5C2.45717 278.5 2.35348 278.5 2.24969 278.5C2.1459 278.5 2.04203 278.5 1.93807 278.5C1.8341 278.5 1.73005 278.5 1.62591 278.5C1.52177 278.5 1.41754 278.5 1.31322 278.5C1.20891 278.5 1.1045 278.5 1 278.5V279.5Z" fill="white"></path>
</svg>
