<svg width="152" height="24" viewBox="0 0 152 24" fill="none" xmlns="http://www.w3.org/2000/svg">
<rect width="152" height="24" fill="white"></rect>
<g clip-path="url('#clip0_1139_1494')">
<path d="M12 17.27L18.18 21L16.54 13.97L22 9.24L14.81 8.63L12 2L9.19 8.63L2 9.24L7.46 13.97L5.82 21L12 17.27Z" fill="black"></path>
</g>
<g clip-path="url('#clip1_1139_1494')">
<path d="M44 17.27L50.18 21L48.54 13.97L54 9.24L46.81 8.63L44 2L41.19 8.63L34 9.24L39.46 13.97L37.82 21L44 17.27Z" fill="black"></path>
</g>
<g clip-path="url('#clip2_1139_1494')">
<path d="M76 17.27L82.18 21L80.54 13.97L86 9.24L78.81 8.63L76 2L73.19 8.63L66 9.24L71.46 13.97L69.82 21L76 17.27Z" fill="black"></path>
</g>
<g clip-path="url('#clip3_1139_1494')">
<path d="M118 9.24L110.81 8.62L108 2L105.19 8.63L98 9.24L103.46 13.97L101.82 21L108 17.27L114.18 21L112.55 13.97L118 9.24ZM108 15.4L104.24 17.67L105.24 13.39L101.92 10.51L106.3 10.13L108 6.1L109.71 10.14L114.09 10.52L110.77 13.4L111.77 17.68L108 15.4Z" fill="black"></path>
</g>
<g clip-path="url('#clip4_1139_1494')">
<path d="M150 9.24L142.81 8.62L140 2L137.19 8.63L130 9.24L135.46 13.97L133.82 21L140 17.27L146.18 21L144.55 13.97L150 9.24ZM140 15.4L136.24 17.67L137.24 13.39L133.92 10.51L138.3 10.13L140 6.1L141.71 10.14L146.09 10.52L142.77 13.4L143.77 17.68L140 15.4Z" fill="black"></path>
</g>
<defs>
<clipPath id="clip0_1139_1494">
<rect width="24" height="24" fill="white"></rect>
</clipPath>
<clipPath id="clip1_1139_1494">
<rect width="24" height="24" fill="white" transform="translate(32)"></rect>
</clipPath>
<clipPath id="clip2_1139_1494">
<rect width="24" height="24" fill="white" transform="translate(64)"></rect>
</clipPath>
<clipPath id="clip3_1139_1494">
<rect width="24" height="24" fill="white" transform="translate(96)"></rect>
</clipPath>
<clipPath id="clip4_1139_1494">
<rect width="24" height="24" fill="white" transform="translate(128)"></rect>
</clipPath>
</defs>
</svg>
