<svg width="64" height="64" viewBox="0 0 64 64" fill="none" xmlns="http://www.w3.org/2000/svg">
<path d="M61.9291 45.628L58.0731 35.991C58.2323 35.98 58.3865 35.931 58.5229 35.8482C58.6593 35.7654 58.7739 35.6511 58.8571 35.515L61.8571 30.515C61.9256 30.4009 61.9707 30.2742 61.9896 30.1424C62.0086 30.0106 62.001 29.8764 61.9674 29.7476C61.9338 29.6188 61.8748 29.498 61.7938 29.3923C61.7129 29.2866 61.6117 29.1981 61.4961 29.132L57.9961 27.132V19C57.9926 17.9543 57.6607 16.9362 57.0472 16.0894C56.4337 15.2427 55.5696 14.6101 54.5771 14.281C55.6564 13.3469 56.4243 12.1051 56.7779 10.7222C57.1315 9.33927 57.0539 7.8813 56.5555 6.54375C56.057 5.2062 55.1616 4.053 53.9892 3.23875C52.8168 2.4245 51.4235 1.98813 49.9961 1.98813C48.5687 1.98813 47.1754 2.4245 46.003 3.23875C44.8306 4.053 43.9352 5.2062 43.4368 6.54375C42.9383 7.8813 42.8607 9.33927 43.2143 10.7222C43.5679 12.1051 44.3358 13.3469 45.4151 14.281C44.4233 14.6107 43.5601 15.2436 42.9474 16.0903C42.3346 16.9371 42.0033 17.9548 42.0001 19V22.947L36.2111 30.386C36.0614 30.5784 35.9872 30.8188 36.0023 31.062C36.0174 31.3053 36.1208 31.5346 36.2931 31.707L36.8541 32.268L29.5281 39.593L23.1651 33.229C22.5935 32.6835 21.8337 32.3792 21.0436 32.3792C20.2535 32.3792 19.4937 32.6835 18.9221 33.229L3.3651 48.786L1.6001 50.553C1.36626 50.7847 1.18048 51.0604 1.05345 51.3641C0.926424 51.6679 0.860637 51.9937 0.85987 52.3229C0.859103 52.6521 0.923371 52.9783 1.04898 53.2826C1.1746 53.5869 1.35908 53.8634 1.59185 54.0962C1.82461 54.3291 2.10107 54.5136 2.40536 54.6393C2.70964 54.765 3.03576 54.8294 3.36498 54.8287C3.69421 54.8281 4.02006 54.7624 4.32382 54.6354C4.62759 54.5085 4.90329 54.3228 5.1351 54.089L6.1961 53.028L10.4381 57.271L9.3751 58.332C8.90972 58.8016 8.6493 59.4364 8.65085 60.0976C8.65239 60.7587 8.91576 61.3923 9.38332 61.8598C9.85089 62.3272 10.4846 62.5904 11.1457 62.5918C11.8069 62.5931 12.4416 62.3325 12.9111 61.867L14.6791 60.1L30.2361 44.543C30.6712 44.1039 30.9601 43.5412 31.0632 42.9317C31.1663 42.3222 31.0786 41.6957 30.8121 41.138L38.2681 33.682L40.2931 35.707C40.4806 35.8945 40.7349 35.9999 41.0001 36C41.0211 36 41.0421 36 41.0631 36C41.2048 35.9912 41.343 35.9523 41.4686 35.8859C41.5941 35.8195 41.704 35.7272 41.7911 35.615L42.5211 34.673C42.9239 36.0553 43.5568 37.3599 44.3931 38.532L42.0671 48.6L36.1671 57.448C36.0281 57.6562 35.9723 57.9089 36.0106 58.1563C36.049 58.4036 36.1787 58.6276 36.3741 58.784L41.3741 62.784C41.5524 62.9246 41.773 63.0007 42.0001 63C42.1579 63 42.3134 62.9627 42.4541 62.8911C42.5947 62.8195 42.7163 62.7156 42.8091 62.588L50.8091 51.588C50.875 51.4969 50.9254 51.3956 50.9581 51.288L52.3261 46.74L54.0001 48.414V61C54.0001 61.2652 54.1055 61.5196 54.293 61.7071C54.4805 61.8946 54.7349 62 55.0001 62H61.0001C61.2653 62 61.5197 61.8946 61.7072 61.7071C61.8947 61.5196 62.0001 61.2652 62.0001 61V46C62.0001 45.8726 61.976 45.7464 61.9291 45.628ZM3.7191 52.675C3.62522 52.7687 3.49793 52.8214 3.36525 52.8213C3.23257 52.8212 3.10536 52.7684 3.0116 52.6745C2.91785 52.5806 2.86523 52.4533 2.86532 52.3206C2.86537 52.2549 2.87836 52.1899 2.90354 52.1292C2.92873 52.0685 2.96561 52.0134 3.0121 51.967L4.0721 50.907L4.7801 51.614L3.7191 52.675ZM10.7901 60.453C10.6964 60.3592 10.6437 60.2321 10.6437 60.0995C10.6437 59.9669 10.6964 59.8398 10.7901 59.746L11.8501 58.685L12.5581 59.392L11.5001 60.453C11.4536 60.4999 11.3983 60.5371 11.3374 60.5624C11.2765 60.5878 11.2111 60.6009 11.1451 60.6009C11.0791 60.6009 11.0137 60.5878 10.9528 60.5624C10.8919 60.5371 10.8366 60.4999 10.7901 60.453ZM28.8211 43.129L13.9721 57.978L5.4861 49.493L20.3361 34.644C20.5265 34.462 20.7797 34.3604 21.0431 34.3604C21.3065 34.3604 21.5597 34.462 21.7501 34.644L28.8211 41.714C28.9141 41.8069 28.9878 41.9172 29.0382 42.0386C29.0885 42.16 29.1144 42.2901 29.1144 42.4215C29.1144 42.5529 29.0885 42.683 29.0382 42.8044C28.9878 42.9258 28.9141 43.0361 28.8211 43.129ZM45.0001 9C45.0001 8.01109 45.2933 7.04439 45.8428 6.22214C46.3922 5.3999 47.1731 4.75904 48.0867 4.3806C49.0003 4.00216 50.0056 3.90314 50.9756 4.09607C51.9455 4.289 52.8364 4.7652 53.5356 5.46446C54.2349 6.16372 54.7111 7.05464 54.904 8.02454C55.097 8.99445 54.9979 9.99978 54.6195 10.9134C54.2411 11.827 53.6002 12.6079 52.778 13.1573C51.9557 13.7067 50.989 14 50.0001 14C48.6745 13.9984 47.4037 13.4711 46.4663 12.5338C45.529 11.5964 45.0017 10.3256 45.0001 9ZM40.9051 33.491L38.3321 30.917L42.0001 26.2V31.03C42.0001 31.361 42.0241 31.689 42.0481 32.016L40.9051 33.491ZM49.0911 50.549L41.8071 60.565L38.3411 57.792L43.8321 49.555C43.899 49.4545 43.9471 49.3427 43.9741 49.225L46.0081 40.425L50.7201 45.137L49.0911 50.549ZM60.0001 60H56.0001V48C56 47.7348 55.8947 47.4805 55.7071 47.293L47.2171 38.803C46.1937 37.7843 45.3824 36.5729 44.8302 35.2386C44.278 33.9044 43.9959 32.474 44.0001 31.03V19C44.0001 18.2043 44.3162 17.4413 44.8788 16.8787C45.4414 16.3161 46.2045 16 47.0001 16H53.0001C53.7958 16 54.5588 16.3161 55.1214 16.8787C55.684 17.4413 56.0001 18.2043 56.0001 19V25.991L54.8281 25.321L52.9491 19.684L51.0491 20.316L53.0491 26.316C53.127 26.5495 53.2883 26.746 53.5021 26.868L59.6151 30.361L57.6151 33.691L50.7641 30.266L46.9101 21.594L45.0821 22.406L49.0821 31.406C49.1763 31.6183 49.3414 31.7912 49.5491 31.895L56.0001 35.118V36C56.0001 36.1274 56.0242 36.2536 56.0711 36.372L60.0001 46.192V60Z" fill="white"/>
<path d="M19.2924 43.2934L14.2925 48.2933L15.7067 49.7075L20.7066 44.7076L19.2924 43.2934Z" fill="white"/>
<path d="M4.07187 14.268L2.33887 15.268L4.33887 18.732L6.07187 17.732L5.57187 16.866L7.37887 15.823C8.29709 16.9297 9.58194 17.6703 10.9999 17.91V20H9.99987V22H13.9999V20H12.9999V17.91C14.4178 17.6703 15.7026 16.9297 16.6209 15.823L18.4279 16.866L17.9279 17.732L19.6609 18.732L21.6609 15.268L19.9279 14.268L19.4279 15.134L17.6179 14.088C18.127 12.7425 18.127 11.2575 17.6179 9.912L19.4279 8.866L19.9279 9.732L21.6609 8.732L19.6609 5.268L17.9279 6.268L18.4279 7.134L16.6209 8.177C15.7026 7.07027 14.4178 6.32973 12.9999 6.09V4H13.9999V2H9.99987V4H10.9999V6.09C9.58194 6.32973 8.29709 7.07027 7.37887 8.177L5.57187 7.134L6.07187 6.268L4.33887 5.268L2.33887 8.732L4.07187 9.732L4.57187 8.866L6.38187 9.912C5.87277 11.2575 5.87277 12.7425 6.38187 14.088L4.57187 15.134L4.07187 14.268ZM11.9999 8C12.791 8 13.5644 8.2346 14.2221 8.67412C14.8799 9.11365 15.3926 9.73836 15.6954 10.4693C15.9981 11.2002 16.0773 12.0044 15.923 12.7804C15.7687 13.5563 15.3877 14.269 14.8283 14.8284C14.2689 15.3878 13.5562 15.7688 12.7802 15.9231C12.0043 16.0775 11.2 15.9983 10.4691 15.6955C9.73823 15.3928 9.11351 14.8801 8.67399 14.2223C8.23446 13.5645 7.99987 12.7911 7.99987 12C7.99987 10.9391 8.42129 9.92172 9.17144 9.17157C9.92159 8.42143 10.939 8 11.9999 8Z" fill="white"/>
<path d="M35.293 15.293L36.707 16.707L40.707 12.707C40.8945 12.5195 40.9998 12.2652 40.9998 12C40.9998 11.7348 40.8945 11.4805 40.707 11.293L36.707 7.293L35.293 8.707L37.586 11H30V13H37.586L35.293 15.293Z" fill="white"/>
<path d="M28 11H26V13H28V11Z" fill="white"/>
<path d="M24 11H22V13H24V11Z" fill="white"/>
<path d="M23.2927 39.293L21.293 41.2927L22.7072 42.7069L24.7069 40.7072L23.2927 39.293Z" fill="white"/>
</svg>
